<svg width="31" height="30" viewBox="0 0 31 30" fill="none" xmlns="http://www.w3.org/2000/svg">
<g id="Group">
<path id="Vector" d="M15.9157 0.130249C16.3314 0.206962 16.7516 0.266528 17.1629 0.362194C20.7222 1.1925 23.3546 4.26103 23.6422 7.91077C23.6684 8.23838 23.589 8.60209 23.7081 8.88638C23.8199 9.15082 24.1463 9.31778 24.3519 9.55063C25.3051 10.6273 25.5576 11.8629 25.013 13.1895C24.4629 14.528 23.4033 15.2238 21.9586 15.3195C21.67 15.3384 21.3192 15.2391 21.1073 15.3709C20.8981 15.5009 20.835 15.8592 20.697 16.111C20.1541 17.0992 19.3993 17.888 18.4344 18.4683C18.2829 18.5595 18.199 18.6551 18.2279 18.8329C18.2324 18.8609 18.227 18.8907 18.2279 18.9196C18.2459 19.1939 18.2648 19.4683 18.2838 19.7427C18.6779 19.8852 19.0224 20.1425 19.4796 20.1343C20.6961 20.1136 21.9135 20.0991 23.112 20.3934C26.8652 21.313 29.6923 24.5909 30.0242 28.4311C30.0486 28.71 30.0693 28.9916 30.0666 29.2713C30.0639 29.6188 29.8303 29.8426 29.4813 29.8625C29.4038 29.867 29.3262 29.8643 29.2496 29.8643C25.527 29.8643 21.8044 29.8643 18.0818 29.8643C17.9952 29.8643 17.9077 29.8679 17.8212 29.8616C17.4893 29.8381 17.2521 29.5944 17.2521 29.2822C17.2521 28.9699 17.4911 28.7271 17.8239 28.7055C17.9105 28.7 17.9979 28.7037 18.0845 28.7037C21.5654 28.7037 25.0463 28.7037 28.5272 28.7037C28.6409 28.7037 28.7545 28.7037 28.869 28.7037C28.6472 24.6848 25.1906 21.4213 21.413 21.3311C21.2597 21.6226 21.1416 21.9015 20.9765 22.1487C20.1857 23.3301 19.3831 24.5034 18.5832 25.6784C18.2198 26.2118 17.896 26.2389 17.4343 25.7768C16.703 25.0458 15.9725 24.3139 15.2231 23.5639C15.1365 23.6442 15.059 23.7119 14.9868 23.7841C14.3159 24.4537 13.6468 25.1261 12.9758 25.7958C12.5439 26.2272 12.1994 26.2001 11.8621 25.7046C11.0081 24.4501 10.1523 23.1956 9.30735 21.9348C9.19462 21.767 9.14143 21.5594 9.05215 21.3491C5.68216 21.3085 1.80536 24.3653 1.57089 28.7037C1.68632 28.7037 1.79993 28.7037 1.91356 28.7037C5.37463 28.7037 8.83662 28.7037 12.2977 28.7037C12.3653 28.7037 12.433 28.7037 12.5006 28.7037C12.9208 28.7082 13.186 28.9347 13.185 29.2858C13.1841 29.6368 12.919 29.8643 12.497 29.8643C8.68782 29.8652 4.87776 29.8625 1.06859 29.8697C0.735827 29.8697 0.523902 29.7271 0.366089 29.4591C0.366089 29.1684 0.366089 28.8787 0.366089 28.5881C0.422902 28.2362 0.476099 27.8833 0.53742 27.5322C1.16326 23.9547 4.26002 20.8536 7.84464 20.3022C8.88801 20.1416 9.96475 20.2102 11.0198 20.1127C11.4067 20.0775 11.8161 19.9241 12.1381 19.7084C12.2679 19.6208 12.1922 19.2246 12.2084 18.9692C12.2111 18.9214 12.2039 18.8717 12.2102 18.8239C12.2319 18.6605 12.1669 18.5649 12.0208 18.4773C10.8503 17.7725 9.9927 16.7905 9.46245 15.5279C9.40203 15.3826 9.32991 15.3131 9.16578 15.3231C8.95386 15.3357 8.74013 15.333 8.52821 15.3213C7.07181 15.2427 5.99507 14.555 5.43145 13.2103C4.87775 11.8899 5.12124 10.6508 6.06812 9.56778C6.27914 9.32681 6.61461 9.15443 6.72914 8.88187C6.85178 8.58946 6.77242 8.21492 6.79677 7.87828C7.05198 4.44243 9.5337 1.40279 12.8559 0.478617C13.4006 0.326996 13.9651 0.244868 14.5206 0.131152C14.985 0.131152 15.4485 0.131152 15.913 0.131152L15.9157 0.130249ZM10.1541 10.2113C10.146 10.2555 10.1316 10.3006 10.1316 10.3457C10.1316 11.3132 10.0928 12.2834 10.1424 13.2482C10.2533 15.3971 11.2949 16.972 13.277 17.8005C15.2024 18.6055 17.0105 18.2589 18.6003 16.9016C18.9295 16.6209 19.1928 16.2626 19.4868 15.9395C19.4678 15.916 19.4489 15.8917 19.4291 15.8682C18.7554 15.8682 18.0809 15.8628 17.4072 15.8763C17.3351 15.8781 17.2404 15.981 17.1989 16.0604C16.9275 16.5721 16.5163 16.9106 15.9472 16.9963C15.5784 17.0523 15.1961 17.0333 14.8191 17.0279C13.9633 17.0162 13.2202 16.3492 13.1301 15.5252C13.03 14.6083 13.5638 13.7897 14.4367 13.6074C14.8182 13.528 15.224 13.5451 15.6181 13.5469C16.3287 13.5487 16.8572 13.88 17.1836 14.5081C17.263 14.6606 17.3441 14.7121 17.5101 14.7103C18.2351 14.7021 18.961 14.6877 19.6843 14.7157C19.9936 14.7274 20.0973 14.6173 20.1568 14.3348C20.4337 13.0199 20.2434 11.6932 20.3173 10.3656C20.2145 10.3394 20.1424 10.3132 20.0675 10.3024C18.9114 10.1391 17.8455 9.73384 16.8752 9.08493C16.7282 8.98656 16.6272 8.97212 16.4685 9.0741C14.9048 10.0813 13.1941 10.5154 11.3391 10.3584C10.9468 10.325 10.5581 10.2627 10.1514 10.2113H10.1541ZM20.3128 9.16255C20.2794 8.69956 20.2786 8.28351 20.2154 7.87738C19.8087 5.28267 17.4352 3.41267 14.8362 3.62566C12.1588 3.84497 10.1099 6.09222 10.1496 8.75642C10.1523 8.93602 10.2083 9.00371 10.3823 9.04342C11.3761 9.27085 12.3716 9.29522 13.3717 9.10118C14.4223 8.89721 15.3719 8.46762 16.234 7.83496C16.5632 7.59309 16.7751 7.59489 17.1006 7.82684C17.1872 7.88821 17.2711 7.95409 17.3585 8.01456C18.2297 8.61743 19.1847 9.00551 20.3128 9.16165V9.16255ZM22.5258 8.45769C22.3924 5.84674 21.2849 3.75021 19.0305 2.39013C16.4081 0.808033 13.718 0.869403 11.1587 2.54987C9.05755 3.92981 8.02951 5.96677 7.91318 8.50372C8.29915 8.48116 8.64003 8.4613 8.98091 8.44145C9.00977 8.20138 9.02959 7.99109 9.06026 7.78171C9.73299 3.11665 15.2015 0.862183 18.9565 3.7105C20.4454 4.83954 21.2624 6.35575 21.4337 8.22033C21.441 8.30246 21.5167 8.44325 21.5681 8.44686C21.8729 8.46852 22.1795 8.45769 22.5258 8.45769ZM8.94753 14.1543V9.63095C7.9763 9.56597 7.18724 9.86019 6.67231 10.6878C6.17362 11.4892 6.18085 12.3249 6.68856 13.12C7.20619 13.9305 7.99073 14.2139 8.94753 14.1543ZM21.486 14.1254C22.3031 14.2951 23.2373 13.8899 23.7306 13.1625C24.2383 12.4125 24.2464 11.4134 23.7487 10.6508C23.2626 9.90441 22.3545 9.50189 21.4851 9.65803V14.1263L21.486 14.1254ZM19.8664 21.7237C19.2361 21.4421 18.6481 21.1758 18.0556 20.9204C17.9943 20.8943 17.8762 20.9015 17.8338 20.943C17.2341 21.5305 16.6425 22.1262 16.0771 22.692C16.7075 23.3247 17.3189 23.9384 17.9393 24.5611C18.5669 23.6379 19.2054 22.6966 19.8673 21.7228L19.8664 21.7237ZM14.37 22.7029C13.9985 22.3328 13.6242 21.9583 13.2482 21.5856C13.0083 21.3482 12.791 20.9655 12.5168 20.9186C12.2292 20.869 11.8847 21.1379 11.5681 21.2751C11.2372 21.4186 10.9098 21.572 10.5654 21.7273C11.2291 22.7038 11.8684 23.6442 12.5024 24.5765C13.1237 23.9538 13.7297 23.3455 14.3709 22.7029H14.37ZM13.3717 19.0919C13.3717 19.3871 13.3654 19.628 13.3753 19.8681C13.3789 19.9584 13.3907 20.0757 13.4475 20.1334C14.0237 20.7282 14.6108 21.313 15.2069 21.9132C15.821 21.2995 16.409 20.7138 16.9924 20.1244C17.0348 20.082 17.0619 20.0062 17.0637 19.9448C17.0709 19.6759 17.0673 19.406 17.0673 19.0919C15.8327 19.4511 14.6234 19.4529 13.3717 19.0919ZM15.2429 15.8682C15.3872 15.8682 15.5333 15.8781 15.6767 15.8664C15.9896 15.8411 16.2097 15.5974 16.2106 15.2897C16.2115 14.9819 15.9932 14.7292 15.6803 14.7112C15.3917 14.694 15.1014 14.6949 14.8128 14.7112C14.4981 14.7283 14.2807 14.9765 14.2798 15.2861C14.2798 15.5965 14.4954 15.8393 14.8083 15.8664C14.9517 15.8781 15.0978 15.8682 15.242 15.8691L15.2429 15.8682Z" fill="#FCFCFC"/>
<path id="Vector_2" d="M15.2061 29.8616C14.895 29.8534 14.6389 29.5881 14.6425 29.2767C14.6461 28.9536 14.9275 28.6883 15.2485 28.7054C15.5596 28.7217 15.8103 28.9951 15.7977 29.3047C15.7859 29.6161 15.5163 29.8697 15.2061 29.8625V29.8616Z" fill="#FCFCFC"/>
</g>
</svg>
