<svg width="30" height="29" viewBox="0 0 30 29" fill="none" xmlns="http://www.w3.org/2000/svg">
<g id="Group">
<path id="Vector" d="M0.115271 26.0419C0.228327 25.6298 0.299083 25.2001 0.460591 24.808C1.24814 22.9005 2.69248 21.8039 4.71826 21.4479C4.80824 21.4318 4.89745 21.4141 5.06665 21.3819C2.88552 20.986 1.87264 19.2157 2.03107 17.6235C2.20719 15.8518 3.67153 14.5174 5.42813 14.4982C7.20087 14.479 8.66675 15.7604 8.89902 17.5713C9.09129 19.0707 8.17684 20.9453 5.9511 21.3888C7.24086 21.5592 8.3845 22.0433 9.35124 22.9657C10.621 21.3712 12.2607 20.4688 14.2895 20.2386C12.8875 19.9976 11.7646 19.3247 10.994 18.1346C10.2149 16.9322 10.0373 15.6262 10.4687 14.2595C11.1355 12.1509 13.2836 10.805 15.3893 11.0774C17.6274 11.3667 19.4124 13.2421 19.4555 15.5671C19.4947 17.734 17.9519 19.8373 15.4178 20.2355C17.432 20.4657 19.0779 21.3581 20.3507 22.9634C21.3105 22.0541 22.4488 21.5569 23.7493 21.3834C22.7649 21.1916 21.9666 20.7174 21.4005 19.8994C20.8329 19.0791 20.6461 18.1676 20.8691 17.1938C21.2598 15.4896 22.8472 14.3386 24.5453 14.5074C26.2681 14.6785 27.6186 16.0835 27.6855 17.7747C27.7563 19.5595 26.5373 21.0389 24.7245 21.3926C24.806 21.4103 24.8868 21.4333 24.9683 21.4441C27.6178 21.8016 29.5836 24.0323 29.5898 26.6926C29.5898 26.9704 29.5905 27.2481 29.5898 27.5252C29.5875 28.0845 29.3898 28.2779 28.8199 28.2794C28.8007 28.2794 28.7815 28.2794 28.7622 28.2794C19.4847 28.2794 10.2072 28.2779 0.929734 28.284C0.572109 28.284 0.293699 28.1981 0.114502 27.8774C0.115271 27.2673 0.115271 26.6542 0.115271 26.0419ZM20.6222 27.1215C20.5045 24.8733 19.5486 23.1399 17.5759 22.0909C15.5216 20.9982 13.4597 21.1341 11.5424 22.4569C9.9319 23.568 9.15897 25.161 9.09359 27.1223H20.6222V27.1215ZM14.8756 19.0914C16.7768 19.0799 18.3211 17.5153 18.3065 15.6162C18.2911 13.7309 16.736 12.1962 14.8448 12.2008C12.9429 12.2054 11.3916 13.7631 11.4001 15.6615C11.4078 17.5583 12.9729 19.1029 14.8764 19.0914H14.8756ZM1.29428 27.12H7.92151C7.93227 27.0824 7.94535 27.0563 7.94612 27.0295C7.98226 26.0143 8.20299 25.0444 8.63522 24.1213C8.6706 24.0453 8.62445 23.8788 8.55831 23.8159C7.34315 22.6649 5.91419 22.2782 4.29372 22.7132C2.3387 23.2381 1.03741 25.1618 1.29428 27.12ZM28.4754 27.12C28.4308 26.6481 28.4415 26.1823 28.3354 25.7457C27.957 24.1934 26.9533 23.1782 25.4405 22.7278C23.8685 22.259 22.4542 22.6472 21.2221 23.7253C21.0344 23.8888 20.9837 24.0315 21.1129 24.2586C21.2252 24.4558 21.3175 24.6738 21.369 24.8947C21.5397 25.6252 21.6874 26.3603 21.8497 27.1208H28.4754V27.12ZM5.47735 15.6476C4.23219 15.6407 3.18854 16.6682 3.16855 17.9212C3.14855 19.1689 4.19989 20.2317 5.4612 20.2394C6.70635 20.2463 7.75 19.2188 7.77 17.9658C7.78999 16.7181 6.73865 15.6553 5.47735 15.6476ZM26.538 17.9297C26.5257 16.6805 25.4859 15.6484 24.2377 15.6476C22.9795 15.6476 21.9243 16.7058 21.9358 17.9565C21.9481 19.2058 22.9879 20.2378 24.2362 20.2386C25.4944 20.2386 26.5496 19.1804 26.538 17.9297Z" fill="#FCFCFC"/>
<path id="Vector_2" d="M11.7762 8.86581C11.8992 8.13685 12.0361 7.36491 12.1538 6.58991C12.17 6.48248 12.1215 6.32671 12.0454 6.24921C11.5339 5.73127 11.0102 5.22483 10.4841 4.72146C10.2872 4.53346 10.178 4.32091 10.2619 4.05465C10.3511 3.77381 10.5818 3.67482 10.8587 3.63799C11.5516 3.54514 12.243 3.43848 12.9367 3.34564C13.1221 3.32108 13.2375 3.25049 13.3228 3.06786C13.6251 2.41793 13.9542 1.78028 14.265 1.13419C14.3826 0.89018 14.5472 0.718298 14.8295 0.715996C15.1125 0.713694 15.2802 0.885576 15.3971 1.12882C15.7124 1.78335 16.04 2.43175 16.3515 3.08858C16.4261 3.24588 16.5261 3.31801 16.6945 3.34103C17.3975 3.43618 18.0981 3.54284 18.801 3.63799C19.0756 3.67482 19.3063 3.7646 19.4002 4.05005C19.494 4.33473 19.3655 4.54651 19.1656 4.73834C18.668 5.21639 18.1819 5.70671 17.6774 6.17632C17.5182 6.32441 17.4674 6.4656 17.5074 6.67662C17.6382 7.37182 17.7482 8.07086 17.8758 8.76606C17.9235 9.02542 17.8758 9.24794 17.6659 9.40831C17.4521 9.57175 17.2167 9.54797 16.9883 9.42903C16.3346 9.08834 15.6801 8.74841 15.031 8.39851C14.8895 8.32177 14.781 8.32024 14.638 8.39774C13.9804 8.75225 13.3205 9.10215 12.6537 9.43747C12.2007 9.6646 11.7547 9.3876 11.777 8.86581H11.7762ZM16.553 7.90128C16.4707 7.40558 16.4207 6.97818 16.3238 6.56229C16.2315 6.16634 16.3192 5.86862 16.6253 5.59008C16.9529 5.29159 17.2359 4.94322 17.5351 4.61941C17.1067 4.55802 16.6545 4.48052 16.1992 4.43218C15.837 4.39381 15.6078 4.225 15.4617 3.88891C15.2771 3.46227 15.0548 3.05175 14.831 2.59826C14.6049 3.05942 14.3857 3.47301 14.198 3.89965C14.0558 4.22346 13.8343 4.38997 13.482 4.42834C13.0213 4.47898 12.5637 4.55725 12.0792 4.62785C12.3861 4.94015 12.6453 5.24938 12.9498 5.5026C13.3351 5.82258 13.4597 6.17709 13.3251 6.66511C13.219 7.05031 13.1859 7.45546 13.1129 7.90128C13.592 7.64959 14.0189 7.43551 14.4357 7.20377C14.7041 7.05491 14.9518 7.05184 15.2217 7.20147C15.6385 7.43321 16.0654 7.64576 16.5522 7.90051L16.553 7.90128Z" fill="#FCFCFC"/>
<path id="Vector_3" d="M2.68789 11.7848C2.75557 11.395 2.8271 10.9215 2.924 10.4542C2.97169 10.2232 2.92708 10.0621 2.74558 9.9025C2.4364 9.63086 2.15569 9.327 1.8542 9.04693C1.63963 8.84742 1.52196 8.62029 1.62502 8.33177C1.72115 8.06321 1.94957 7.97957 2.21337 7.94581C2.64098 7.89133 3.06629 7.82073 3.4939 7.76702C3.68079 7.74323 3.79615 7.66803 3.87767 7.48541C4.05995 7.07565 4.27452 6.67971 4.47064 6.27533C4.58446 6.04129 4.7552 5.88706 5.02438 5.88629C5.29433 5.88629 5.4643 6.04359 5.57812 6.2761C5.77962 6.68815 5.99189 7.0956 6.18263 7.51303C6.25569 7.67264 6.35798 7.7417 6.52487 7.76241C6.96171 7.81843 7.39702 7.89056 7.83386 7.94581C8.11073 7.98034 8.33838 8.08009 8.43298 8.36016C8.52911 8.64408 8.39375 8.85663 8.19379 9.04693C7.8677 9.35769 7.53853 9.66539 7.22935 9.99228C7.15398 10.0721 7.10553 10.2248 7.12014 10.3337C7.18013 10.788 7.2655 11.2392 7.34856 11.6904C7.39702 11.9551 7.35933 12.1899 7.13091 12.358C6.90018 12.5275 6.66484 12.4846 6.42873 12.358C6.02342 12.1416 5.62042 11.9198 5.20589 11.7226C5.10667 11.675 4.9467 11.6727 4.84826 11.7195C4.40757 11.929 3.98381 12.1746 3.54543 12.3879C3.10166 12.6035 2.6779 12.3388 2.68789 11.7855V11.7848ZM3.97688 10.8225C4.37989 10.6599 4.69675 10.4327 5.01208 10.4335C5.3374 10.4335 5.66272 10.6568 5.98497 10.7811C5.96267 10.4519 5.84192 10.0744 5.94344 9.77052C6.04727 9.45745 6.36798 9.21497 6.6387 8.88809C5.75886 8.98938 5.25588 8.58883 5.02284 7.75781C4.79981 8.60341 4.27221 8.97556 3.39776 8.93796C4.12763 9.41448 4.33759 10.0253 3.97688 10.8225Z" fill="#FCFCFC"/>
<path id="Vector_4" d="M22.265 11.7602C22.3335 11.3697 22.4104 10.8985 22.5004 10.4289C22.5396 10.2263 22.5135 10.0736 22.3435 9.92478C22.0128 9.63396 21.7105 9.31245 21.3906 9.00858C21.1906 8.81905 21.1076 8.59729 21.1983 8.33487C21.2875 8.07781 21.5029 7.9842 21.7559 7.94967C22.1927 7.89058 22.6281 7.82306 23.0657 7.76704C23.251 7.74326 23.3695 7.67343 23.4517 7.4885C23.6332 7.07798 23.8486 6.68281 24.0447 6.27842C24.1585 6.04439 24.327 5.88862 24.5969 5.88632C24.8676 5.88401 25.0391 6.04132 25.153 6.27305C25.3506 6.67667 25.559 7.07491 25.7436 7.4839C25.8236 7.66115 25.9359 7.74402 26.1259 7.76704C26.5635 7.81999 26.9988 7.89135 27.4356 7.94813C27.7025 7.98343 27.9171 8.08855 28.0086 8.35635C28.1009 8.62645 27.9863 8.83824 27.7932 9.02316C27.4618 9.3416 27.1249 9.65544 26.808 9.98846C26.7319 10.0683 26.6811 10.2202 26.6958 10.3292C26.7573 10.7926 26.8473 11.253 26.9288 11.7142C26.9742 11.9689 26.9265 12.1945 26.7096 12.3549C26.4919 12.5168 26.2635 12.4923 26.0336 12.3703C25.6444 12.1638 25.2476 11.9712 24.8669 11.7503C24.6677 11.6344 24.5115 11.6474 24.3177 11.7579C23.9193 11.9858 23.5125 12.2022 23.0972 12.3979C22.6588 12.6051 22.242 12.3173 22.2658 11.7587L22.265 11.7602ZM23.5902 10.8479C24.2708 10.2992 24.9169 10.2939 25.6006 10.8425C25.2822 10.0222 25.5006 9.41373 26.2212 8.93722C25.3514 8.96791 24.8138 8.61264 24.6046 7.7517C24.3677 8.57888 23.8586 8.99017 22.9703 8.94106C23.7209 9.41757 23.8955 10.0383 23.5894 10.8479H23.5902Z" fill="#FCFCFC"/>
<path id="Vector_5" d="M17.1474 23.2109C17.2143 23.2424 17.3527 23.2846 17.4658 23.3628C18.1049 23.8064 18.6048 24.375 18.9594 25.0671C19.1347 25.4093 19.0686 25.7232 18.7832 25.8927C18.4948 26.0646 18.1603 25.9871 17.9803 25.6526C17.6742 25.0863 17.2674 24.6213 16.7475 24.2445C16.5152 24.0765 16.4306 23.8371 16.5367 23.5616C16.6283 23.3237 16.8151 23.2078 17.1466 23.2101L17.1474 23.2109Z" fill="#FCFCFC"/>
<path id="Vector_6" d="M14.8456 23.6823C14.5426 23.6777 14.2772 23.4053 14.2818 23.1053C14.2865 22.803 14.5587 22.5382 14.8602 22.5428C15.1632 22.5474 15.4286 22.8199 15.4239 23.1199C15.4193 23.4222 15.1463 23.6869 14.8456 23.6823Z" fill="#FCFCFC"/>
</g>
</svg>
