<svg width="28" height="28" viewBox="0 0 28 28" fill="none" xmlns="http://www.w3.org/2000/svg">
<path id="Vector" d="M27.887 18.363C27.887 18.2462 27.8606 18.1294 27.8342 18.0126L22.6015 0.943294C22.4257 0.386296 21.9156 0 21.3439 0H7.18491C6.60445 0 6.09441 0.386296 5.92732 0.943294L0.694626 18.0126C0.659466 18.1474 0.64186 18.2821 0.633057 18.4169V26.5023C0.633057 27.2479 1.22227 27.8499 1.95222 27.8499H26.5766C27.3066 27.8499 27.8958 27.2479 27.8958 26.5023C27.887 26.4484 27.9046 18.4079 27.887 18.363ZM18.6616 17.0693C17.9317 17.0693 17.3425 17.6712 17.3425 18.4169C17.2369 22.5584 11.2919 22.5674 11.1864 18.4169C11.1864 17.6712 10.5972 17.0693 9.8672 17.0693H3.74626L8.15228 2.69515H20.3765L24.7826 17.0693H18.6616Z" fill="#FCFCFC"/>
</svg>
