<svg width="31" height="21" viewBox="0 0 31 21" fill="none" xmlns="http://www.w3.org/2000/svg">
<g id="Group">
<path id="Vector" d="M30.9162 16.7568C30.7721 17.0263 30.5416 17.1072 30.2467 17.0979C29.8016 17.0838 29.3559 17.0945 28.8868 17.0945C28.8385 18.0902 28.4699 18.9081 27.6931 19.5133C27.1146 19.964 26.4511 20.1713 25.7192 20.1465C24.4531 20.1031 22.917 19.1602 22.7889 17.1173H12.033C11.9854 18.1491 11.5752 18.997 10.7227 19.6009C10.1422 20.0121 9.48809 20.1907 8.77965 20.1418C7.50821 20.0549 6.06051 19.098 5.93987 17.0952C5.83866 17.0952 5.73342 17.0952 5.62887 17.0952C4.91238 17.0952 4.1959 17.0986 3.47941 17.0939C2.78505 17.0899 2.38626 16.6913 2.38023 16.0032C2.37755 15.6976 2.38023 15.3914 2.38023 15.049C1.89699 15.049 1.4419 15.0516 0.986807 15.0476C0.868845 15.0463 0.710675 15.0677 0.640971 15.0035C0.514296 14.8865 0.362146 14.7113 0.366167 14.5642C0.370188 14.4184 0.533724 14.2532 0.665761 14.1429C0.741498 14.08 0.894323 14.0981 1.01228 14.0974C2.41509 14.0947 3.81855 14.0954 5.22136 14.0961C5.29106 14.0961 5.36145 14.0934 5.42981 14.1021C5.71332 14.1355 5.90031 14.3361 5.8916 14.5916C5.88288 14.8497 5.6912 15.0396 5.39965 15.045C4.83263 15.0543 4.26493 15.049 3.69791 15.049C3.59067 15.049 3.48345 15.049 3.3561 15.049V16.1416C3.69457 16.1416 4.02031 16.1416 4.34537 16.1416C4.86279 16.1416 5.38021 16.135 5.89763 16.1457C6.06251 16.149 6.13624 16.0915 6.20528 15.9424C6.75688 14.7601 7.6932 14.1048 8.99949 14.1101C10.291 14.1148 11.2227 14.7608 11.7682 15.935C11.8353 16.0788 11.9036 16.1463 12.0732 16.1463C15.2474 16.141 18.4223 16.1423 21.5966 16.1416C21.6448 16.1416 21.6931 16.1343 21.7688 16.1283C21.7742 16.0132 21.7822 15.9083 21.7829 15.8033C21.7843 14.7608 21.7722 13.7176 21.7943 12.6757C21.7983 12.4932 21.8948 12.2538 22.0316 12.1448C22.3271 11.9081 22.7326 12.1682 22.738 12.5808C22.7467 13.3057 22.7407 14.0305 22.7407 14.7554C22.7407 15.1326 22.7353 15.5104 22.7447 15.8875C22.7467 15.9711 22.8017 16.054 22.8325 16.137C22.9049 16.0728 23.0081 16.0233 23.0456 15.943C23.4652 15.0423 24.1401 14.4391 25.1086 14.195C26.5342 13.8353 27.9799 14.5347 28.5912 15.8782C28.683 16.0794 28.7829 16.165 29.0087 16.1483C29.313 16.1263 29.6207 16.143 29.9424 16.143V14.0279C29.738 14.0279 29.5423 14.0352 29.3465 14.0265C28.555 13.9904 27.9464 13.3752 27.9236 12.5855C27.9142 12.2478 27.9156 11.9101 27.9223 11.5724C27.929 11.2186 28.1012 11.0474 28.4605 11.0421C28.9163 11.0354 29.372 11.0401 29.8311 11.0401C29.7453 10.5051 29.175 9.9842 28.5697 9.97751C26.6408 9.95477 24.7119 9.96881 22.74 9.96881C22.74 10.1467 22.7454 10.3119 22.7387 10.4764C22.7266 10.7806 22.5343 10.9786 22.2615 10.9759C22.0028 10.9732 21.8117 10.7826 21.7869 10.4971C21.7796 10.4082 21.7843 10.3185 21.7843 10.2289C21.7843 7.5481 21.7843 4.86659 21.7843 2.18575V1.81997H3.33532C3.33532 1.94301 3.33532 2.05869 3.33532 2.17371C3.33532 4.86458 3.33532 7.55612 3.33532 10.247C3.33532 10.346 3.34 10.4463 3.32928 10.5446C3.30314 10.7967 3.15168 10.9451 2.90705 10.9705C2.65973 10.9959 2.48211 10.8716 2.41173 10.6328C2.37889 10.5218 2.38023 10.3981 2.37956 10.2798C2.37822 7.52938 2.37822 4.77832 2.37822 2.02793C2.37822 1.21947 2.75288 0.850342 3.56923 0.850342C9.56986 0.850342 15.5705 0.850342 21.5711 0.850342C22.3727 0.850342 22.7387 1.21546 22.74 2.01255C22.74 2.28873 22.74 2.5649 22.74 2.86983C22.8674 2.87585 22.9733 2.88455 23.0785 2.88455C24.1033 2.88588 25.1287 2.90528 26.1535 2.87986C27.4451 2.84777 28.5637 3.73982 28.3385 5.47912C28.3177 5.63761 28.1488 5.77603 28.0101 5.98065C28.238 6.89076 28.4826 7.88112 28.7386 8.86879C28.7581 8.94503 28.8472 9.03998 28.9216 9.05938C29.99 9.33488 30.6381 10.0063 30.8733 11.0802C30.8794 11.1076 30.9008 11.1317 30.9156 11.1578V16.7595L30.9162 16.7568ZM27.7655 8.99384C27.744 8.89153 27.7293 8.80594 27.7078 8.72168C27.4987 7.8751 27.2789 7.03119 27.0832 6.18126C27.0275 5.93919 26.9183 5.877 26.679 5.87901C25.4759 5.89172 24.2722 5.88503 23.0691 5.88503C22.9719 5.88503 22.8747 5.88503 22.7661 5.88503V8.99317H27.7648L27.7655 8.99384ZM25.8305 19.1956C26.9632 19.2016 27.9042 18.2775 27.9196 17.1434C27.935 16.0059 26.9846 15.0516 25.8392 15.055C24.7031 15.0583 23.7675 15.9892 23.7648 17.12C23.7621 18.2481 24.6991 19.1889 25.8305 19.195V19.1956ZM9.00486 19.1956C10.1382 19.1883 11.0685 18.2494 11.0645 17.1173C11.0605 15.9825 10.1282 15.0563 8.99011 15.055C7.84334 15.0543 6.90298 16.0019 6.91438 17.1467C6.92577 18.2761 7.87149 19.203 9.00486 19.1956ZM22.7588 4.90404H27.3781C27.4008 4.29016 26.9498 3.84681 26.2963 3.8428C25.183 3.83611 24.0698 3.84013 22.9565 3.8428C22.8908 3.8428 22.8245 3.86152 22.7588 3.87155V4.90404ZM29.937 13.0582V12.0171H28.8961C28.8144 12.9639 28.9806 13.1298 29.937 13.0582Z" fill="#FCFCFC"/>
<path id="Vector_2" d="M12.0338 9.8479C13.3514 8.53189 14.6168 7.26737 15.8829 6.00285C16.0163 5.8691 16.1463 5.73202 16.2851 5.60363C16.515 5.39165 16.7804 5.38229 16.9781 5.57019C17.1798 5.76278 17.1798 6.05434 16.9526 6.28303C16.1973 7.04603 15.4345 7.80166 14.6751 8.56065C13.9506 9.28419 13.2261 10.0077 12.5002 10.7299C12.1624 11.0656 11.948 11.0663 11.6142 10.7339C10.8246 9.94888 10.0391 9.15981 9.24824 8.37608C9.08269 8.21158 8.97077 8.03638 9.05522 7.79431C9.17654 7.44591 9.58538 7.36968 9.8776 7.65522C10.5096 8.27444 11.1329 8.90235 11.7576 9.52826C11.8481 9.61854 11.9258 9.72152 12.0338 9.84724V9.8479Z" fill="#FCFCFC"/>
<path id="Vector_3" d="M16.6327 15.0482C15.5181 15.0482 14.4042 15.0482 13.2896 15.0482C13.1904 15.0482 13.0892 15.0509 12.992 15.0362C12.7514 14.9994 12.6214 14.8389 12.6026 14.6116C12.5838 14.3815 12.6964 14.2023 12.925 14.1348C13.0463 14.0993 13.1803 14.0973 13.3084 14.0973C15.5369 14.0953 17.7661 14.096 19.9946 14.096C20.0248 14.096 20.0543 14.096 20.0844 14.096C20.4772 14.1027 20.7078 14.2859 20.7017 14.5855C20.6957 14.8784 20.4799 15.0476 20.0959 15.0482C18.9417 15.0502 17.7875 15.0489 16.6334 15.0489L16.6327 15.0482Z" fill="#FCFCFC"/>
<path id="Vector_4" d="M4.90835 13.0094C3.92378 13.0094 2.93919 13.0107 1.95529 13.0094C1.57861 13.0094 1.3608 12.8308 1.36281 12.5346C1.36482 12.2437 1.59135 12.0585 1.96199 12.0578C3.93115 12.0558 5.89963 12.0578 7.86878 12.0558C8.09465 12.0558 8.30914 12.1093 8.38354 12.3293C8.43045 12.4697 8.42911 12.6951 8.34466 12.7927C8.2401 12.9137 8.02898 12.9973 7.86209 13.0007C6.87818 13.0194 5.8936 13.01 4.90902 13.01L4.90835 13.0094Z" fill="#FCFCFC"/>
<path id="Vector_5" d="M25.8299 16.1434C26.3815 16.138 26.8225 16.566 26.8298 17.1123C26.8372 17.65 26.3928 18.1047 25.8526 18.1134C25.3164 18.1221 24.862 17.6767 24.854 17.1351C24.8459 16.5901 25.2803 16.148 25.8299 16.1427V16.1434Z" fill="#FCFCFC"/>
<path id="Vector_6" d="M8.98611 16.1434C9.53905 16.1414 9.97068 16.57 9.97203 17.121C9.97337 17.668 9.53502 18.112 8.99213 18.1134C8.45728 18.1147 8.00086 17.6613 7.99818 17.1264C7.9955 16.5854 8.43853 16.1447 8.98611 16.1427V16.1434Z" fill="#FCFCFC"/>
</g>
</svg>
