<svg width="34" height="34" viewBox="0 0 34 34" fill="none" xmlns="http://www.w3.org/2000/svg">
<g id="File">
<path id="Vector" fill-rule="evenodd" clip-rule="evenodd" d="M28.081 12.389C28.081 12.1179 27.9731 11.8576 27.7812 11.6657L18.5742 2.45874C18.3824 2.26692 18.1221 2.159 17.851 2.159H8.64396C7.83016 2.159 7.04961 2.48227 6.47417 3.0577C5.89873 3.63365 5.57495 4.4142 5.57495 5.228C5.57495 10.343 5.57495 23.642 5.57495 28.757C5.57495 29.5708 5.89873 30.3514 6.47417 30.9273C7.04961 31.5028 7.83016 31.826 8.64396 31.826H25.012C26.7071 31.826 28.081 30.4521 28.081 28.757C28.081 23.9597 28.081 12.389 28.081 12.389ZM17.851 4.62852V11.366C17.851 11.6371 17.9589 11.8975 18.1507 12.0893C18.3425 12.2811 18.6029 12.389 18.874 12.389H25.6115L17.851 4.62852Z" fill="#5CCFFE"/>
</g>
</svg>
