<svg width="29" height="30" viewBox="0 0 29 30" fill="none" xmlns="http://www.w3.org/2000/svg">
<g id="Group">
<path id="Vector" d="M0.366089 26.8673C0.366089 23.132 0.366089 19.3974 0.366089 15.662C0.380702 15.639 0.403003 15.6183 0.407618 15.5937C0.543746 14.8479 0.952133 14.2862 1.55817 13.8427C2.48646 13.1628 3.40091 12.463 4.32843 11.7801C4.49993 11.6543 4.573 11.5246 4.57223 11.3043C4.56377 8.7476 4.5653 6.19009 4.56684 3.63334C4.56761 1.97514 5.67894 0.869421 7.34324 0.869421C12.1293 0.868653 16.9145 0.869421 21.7006 0.869421C23.3987 0.869421 24.4962 1.96824 24.497 3.66941C24.4977 6.22615 24.4993 8.78367 24.4931 11.3404C24.4931 11.5269 24.5523 11.642 24.7 11.7509C25.6852 12.4791 26.6673 13.2112 27.6433 13.9509C28.3063 14.4535 28.687 15.1303 28.6908 15.959C28.7054 19.5002 28.7108 23.0414 28.6877 26.5827C28.6808 27.6132 28.154 28.3821 27.2303 28.8517C26.9811 28.9783 26.6973 29.0397 26.4297 29.131H2.6349C2.57491 29.1118 2.51569 29.0895 2.45493 29.075C1.50664 28.8455 0.85292 28.2823 0.514522 27.3653C0.454533 27.2034 0.41531 27.0339 0.366089 26.8681V26.8673ZM14.5319 1.91452C12.1254 1.91452 9.71896 1.91299 7.31171 1.91452C6.26729 1.91529 5.61742 2.55985 5.61742 3.59728C5.61588 7.76388 5.61895 11.9305 5.61126 16.0971C5.61126 16.3066 5.67664 16.3979 5.86737 16.4754C8.49227 17.5427 11.1164 18.6116 13.7336 19.6982C14.2812 19.9253 14.7865 19.9253 15.3325 19.6982C17.9413 18.617 20.5569 17.5496 23.1741 16.4884C23.3903 16.401 23.4533 16.2943 23.4525 16.0687C23.4456 11.9297 23.4479 7.79074 23.4472 3.65099C23.4472 2.53913 22.8157 1.91299 21.6959 1.91299C19.3079 1.91222 16.9192 1.91299 14.5311 1.91299L14.5319 1.91452ZM1.41666 15.7794C1.41666 15.9521 1.41666 16.0679 1.41666 16.1838C1.41666 19.5869 1.41666 22.99 1.41666 26.3931C1.41666 27.4283 2.06962 28.082 3.10789 28.0828C10.7242 28.0843 18.3397 28.0843 25.9559 28.0828C26.9942 28.0828 27.6471 27.4283 27.6471 26.3939C27.6479 22.9908 27.6471 19.5877 27.6471 16.1846C27.6471 16.0695 27.6471 15.9536 27.6471 15.7833C24.8823 16.9158 22.172 18.0262 19.3756 19.1718C19.5087 19.2685 19.6002 19.3183 19.6717 19.3889C21.1799 20.8891 22.6858 22.3923 24.1916 23.8947C24.2632 23.9661 24.3385 24.0359 24.397 24.1172C24.5523 24.3336 24.5223 24.6168 24.3347 24.7956C24.154 24.9674 23.884 24.9912 23.6748 24.8431C23.5933 24.7848 23.5233 24.7096 23.451 24.6382C21.8205 23.013 20.1885 21.3886 18.5642 19.7573C18.4266 19.6191 18.3212 19.5969 18.1412 19.6736C17.3029 20.0289 16.4562 20.365 15.614 20.7134C14.8872 21.0134 14.1681 21.0149 13.4406 20.7087C12.61 20.3588 11.7686 20.032 10.9395 19.6782C10.748 19.5961 10.6396 19.6153 10.4927 19.7634C8.86835 21.3955 7.23634 23.0192 5.60588 24.6444C5.53435 24.7157 5.4636 24.7909 5.38131 24.8477C5.17058 24.9935 4.90063 24.9667 4.72297 24.7917C4.53685 24.6091 4.5107 24.329 4.66913 24.1134C4.72835 24.0328 4.80449 23.963 4.87602 23.8916C6.38189 22.3892 7.88776 20.886 9.39594 19.3859C9.46593 19.316 9.56206 19.2708 9.70281 19.1756C6.88872 18.0231 4.17845 16.9128 1.41512 15.781L1.41666 15.7794ZM24.5123 12.9119V15.9337C25.3853 15.5761 26.2328 15.2292 27.1211 14.8655C26.2451 14.2095 25.4006 13.5764 24.5123 12.9119ZM1.9481 14.8648C2.83409 15.2277 3.68162 15.5738 4.54223 15.926V12.9226C3.6647 13.5795 2.82025 14.2118 1.9481 14.8648Z" fill="#FCFCFC"/>
<path id="Vector_2" d="M20.3115 5.05998C20.4961 5.05998 20.6523 5.05537 20.8076 5.06074C21.1276 5.07149 21.3398 5.27483 21.3444 5.56948C21.3483 5.86491 21.1445 6.08513 20.8268 6.10048C20.5238 6.11506 20.2185 6.10355 19.9147 6.10892C19.4909 6.11582 19.2656 6.28924 19.2548 6.60922C19.2441 6.92306 19.4809 7.12947 19.8832 7.15709C20.543 7.20313 21.0968 7.64204 21.2837 8.26742C21.4982 8.98641 21.1914 9.74299 20.5169 10.0937C20.3392 10.1857 20.28 10.2901 20.2962 10.475C20.3077 10.6024 20.3031 10.7329 20.2915 10.8602C20.2669 11.1296 20.0647 11.3199 19.8024 11.3329C19.5571 11.3452 19.3356 11.1825 19.2771 10.9331C19.2541 10.8364 19.2548 10.7329 19.2502 10.6323C19.2464 10.5326 19.2494 10.4328 19.2494 10.2924C19.0772 10.2924 18.9241 10.2985 18.7718 10.2909C18.4227 10.2732 18.1927 10.0461 18.2073 9.74223C18.2219 9.4422 18.4419 9.25574 18.7903 9.24883C19.1218 9.24269 19.454 9.25114 19.7847 9.22888C20.1231 9.20663 20.3039 9.00406 20.2954 8.70019C20.2869 8.41628 20.0977 8.21677 19.777 8.20296C18.6188 8.15462 17.9635 7.07269 18.2919 6.11966C18.4265 5.72832 18.6742 5.42293 19.0456 5.2449C19.2218 5.1605 19.2633 5.05614 19.2525 4.88426C19.2433 4.73847 19.2441 4.58807 19.2687 4.44535C19.3164 4.1645 19.5478 3.99339 19.8209 4.01487C20.08 4.03482 20.2716 4.22973 20.2939 4.50213C20.3015 4.59344 20.2962 4.68552 20.2992 4.7776C20.3016 4.85894 20.3069 4.94027 20.3123 5.05998H20.3115Z" fill="#FCFCFC"/>
<path id="Vector_3" d="M11.3894 7.15376C12.4031 7.15376 13.4167 7.15299 14.4296 7.15376C14.8211 7.15376 15.0441 7.34175 15.0487 7.66327C15.0526 7.99398 14.8195 8.19733 14.4188 8.19733C12.3915 8.19963 10.365 8.19963 8.33768 8.19733C7.95083 8.19733 7.72395 8.00012 7.71933 7.67938C7.71395 7.34559 7.94006 7.15376 8.34921 7.15376C9.36287 7.15222 10.3765 7.15376 11.3894 7.15376Z" fill="#FCFCFC"/>
<path id="Vector_4" d="M11.3841 14.4782C10.3704 14.4782 9.35756 14.4812 8.3439 14.4766C7.94705 14.4751 7.72709 14.2863 7.7194 13.9664C7.71325 13.6978 7.88321 13.4868 8.15086 13.4461C8.2593 13.4292 8.37082 13.4308 8.48157 13.4308C10.4166 13.43 12.3508 13.4308 14.2859 13.4308C14.3689 13.4308 14.452 13.4292 14.5343 13.4361C14.8488 13.4622 15.0419 13.6533 15.0488 13.9395C15.0557 14.2365 14.8596 14.4475 14.5343 14.472C14.342 14.4866 14.1474 14.4789 13.9544 14.4789C13.0976 14.4789 12.2409 14.4789 11.3841 14.4789V14.4782Z" fill="#FCFCFC"/>
<path id="Vector_5" d="M10.8665 10.2939C11.7233 10.2939 12.5801 10.2893 13.4376 10.2962C13.8352 10.2992 14.0698 10.5877 13.9837 10.9423C13.9221 11.1955 13.7245 11.3344 13.3945 11.3359C12.6116 11.3397 11.8279 11.3374 11.045 11.3374C10.1421 11.3374 9.23916 11.3397 8.33625 11.3359C7.9717 11.3344 7.75174 11.1625 7.72175 10.8732C7.68714 10.5325 7.91248 10.2977 8.29625 10.2954C9.15302 10.2908 10.0098 10.2939 10.8673 10.2939H10.8665Z" fill="#FCFCFC"/>
<path id="Vector_6" d="M10.8801 4.01018C11.7092 4.01018 12.5391 4.00864 13.3682 4.01018C13.7681 4.01094 14.0065 4.21275 14.0011 4.5381C13.9965 4.85271 13.7604 5.05605 13.3805 5.05682C11.7031 5.05912 10.0257 5.05912 8.34831 5.05682C7.94454 5.05682 7.71459 4.85654 7.71843 4.52275C7.72228 4.19357 7.94916 4.01018 8.3637 4.00941C9.202 4.00788 10.0411 4.00941 10.8794 4.00941L10.8801 4.01018Z" fill="#FCFCFC"/>
</g>
</svg>
