<svg width="33" height="32" viewBox="0 0 33 32" fill="none" xmlns="http://www.w3.org/2000/svg">
<g id="magnifier">
<path id="XMLID 223" d="M27.8117 24.586L22.7347 19.509C23.7837 17.928 24.3977 16.035 24.3977 14C24.3977 8.486 19.9117 4 14.3977 4C8.88371 4 4.39771 8.486 4.39771 14C4.39771 19.514 8.88371 24 14.3977 24C16.4327 24 18.3257 23.386 19.9067 22.337L24.9837 27.414C25.7637 28.195 27.0317 28.195 27.8117 27.414C28.5927 26.633 28.5927 25.367 27.8117 24.586ZM7.39771 14C7.39771 10.14 10.5377 7 14.3977 7C18.2577 7 21.3977 10.14 21.3977 14C21.3977 17.86 18.2577 21 14.3977 21C10.5377 21 7.39771 17.86 7.39771 14Z" fill="#979797"/>
</g>
</svg>
