<svg width="31" height="32" viewBox="0 0 31 32" fill="none" xmlns="http://www.w3.org/2000/svg">
<g id="Group">
<path id="Vector" d="M2.92131 17.2701V27.4154H16.1156C16.1156 27.2945 16.1156 27.1816 16.1156 27.0687C16.1156 25.5662 16.1176 24.0626 16.1136 22.5601C16.1136 22.2768 16.1988 22.055 16.4898 21.9738C16.848 21.8737 17.1281 22.1233 17.1291 22.5443C17.133 23.8249 17.13 25.1056 17.13 26.3863C17.13 26.723 17.13 27.0598 17.13 27.4352C17.4547 27.4352 17.7575 27.4312 18.0603 27.4352C18.4582 27.4411 18.6492 27.6243 18.6512 28.0156C18.6532 28.4385 18.6819 28.8674 18.6245 29.2834C18.4414 30.6126 17.3953 31.497 16.0315 31.498C11.6839 31.501 7.33723 31.5 2.98959 31.498C2.81145 31.498 2.63033 31.4832 2.45417 31.4505C1.25171 31.2286 0.395662 30.2203 0.370921 29.0001C0.363993 28.6722 0.364983 28.3434 0.370921 28.0156C0.377848 27.6233 0.563905 27.4431 0.962744 27.4352C1.24777 27.4302 1.53378 27.4302 1.8188 27.4272C1.8287 27.4272 1.83761 27.4213 1.89303 27.4025V27.0519C1.89303 23.6962 1.89303 20.3415 1.89303 16.9858C1.89303 16.4004 2.03852 16.2529 2.62045 16.2529C4.0911 16.2529 5.56075 16.2548 7.03141 16.2509C7.3006 16.2509 7.51438 16.3301 7.6084 16.5995C7.73408 16.9591 7.47479 17.2661 7.0433 17.2681C5.79532 17.272 4.54733 17.2691 3.29935 17.2691C3.18455 17.2691 3.06877 17.2691 2.92131 17.2691V17.2701ZM1.3863 28.4623C1.3863 28.6524 1.38333 28.8099 1.3863 28.9674C1.40313 29.6984 1.87324 30.3174 2.59174 30.4343C3.01928 30.5036 3.4676 30.4471 3.92582 30.4471C3.92582 30.2857 3.91692 30.1272 3.9278 29.9707C3.9476 29.6696 4.16037 29.4666 4.43748 29.4706C4.71359 29.4735 4.91948 29.6786 4.93729 29.9816C4.94719 30.1451 4.93927 30.3095 4.93927 30.468H14.0749C14.1115 30.0599 13.9532 29.4933 14.5836 29.4874C15.2378 29.4805 15.0537 30.0767 15.118 30.462C16.9351 30.6433 17.8753 29.8826 17.5972 28.4633H1.3863V28.4623Z" fill="#FCFCFC"/>
<path id="Vector_2" d="M9.23543 18.2212C9.62635 18.8986 10.0064 19.5553 10.3865 20.213C10.4389 20.3041 10.4953 20.3952 10.5398 20.4903C10.6695 20.7686 10.5913 21.0459 10.3508 21.1797C10.1113 21.3124 9.81934 21.244 9.66198 20.9865C9.38091 20.526 9.11964 20.0545 8.84946 19.588C8.702 19.3334 8.55254 19.0789 8.38628 18.7927C7.75388 19.1651 7.12152 19.5048 6.52474 19.9C6.12096 20.1674 6.02395 20.7181 6.26147 21.1529C6.59104 21.7561 6.93346 22.3524 7.29271 22.9377C7.58367 23.4112 8.12702 23.5429 8.62582 23.2973C8.63572 23.2923 8.6446 23.2883 8.65351 23.2824C10.7298 21.8789 13.1338 21.2272 15.4288 20.3269C16.6174 19.8604 17.8199 19.4265 19.052 18.965C18.9896 18.8511 18.9372 18.753 18.8828 18.6579C18.2335 17.5318 17.5834 16.4047 16.9331 15.2785C16.9015 15.224 16.8649 15.1715 16.8362 15.1151C16.6857 14.8209 16.751 14.5446 17.0034 14.396C17.2488 14.2514 17.5467 14.3267 17.711 14.602C18.0683 15.2012 18.4127 15.8084 18.761 16.4136C19.2202 17.2109 19.6794 18.0072 20.1367 18.8055C20.4197 19.2998 20.3287 19.5553 19.8002 19.7544C17.4477 20.6399 15.0953 21.5233 12.7428 22.4088C12.6251 22.4534 12.5073 22.499 12.3559 22.5574C12.6706 23.1111 12.9873 23.6419 13.2802 24.1867C13.7216 25.0078 13.3743 25.9923 12.536 26.337C11.8314 26.6272 11.0495 26.3657 10.6398 25.6853C10.2964 25.1158 9.97178 24.5343 9.61946 23.9262C8.64562 24.5868 7.68067 24.6978 6.73751 23.8658C6.55145 23.9678 6.37031 24.0758 6.18227 24.1689C5.42715 24.5452 4.5523 24.2867 4.14653 23.5726C3.73878 22.8555 3.9694 21.977 4.68592 21.5214C4.74827 21.4818 4.80962 21.4372 4.87791 21.4104C5.14216 21.3084 5.20054 21.1549 5.16491 20.8528C5.07683 20.105 5.37771 19.4909 5.97646 19.0294C6.01803 18.9967 6.06054 18.963 6.10805 18.9402C8.30512 17.8725 10.0628 16.2026 11.9283 14.6813C13.0595 13.7581 14.1808 12.8231 15.3071 11.8941C15.7119 11.5603 16.0009 11.6088 16.2631 12.0516C16.4037 12.2883 16.5452 12.524 16.6758 12.7657C16.8391 13.0698 16.7659 13.3659 16.5036 13.5085C16.2483 13.6482 15.984 13.563 15.7999 13.2827C15.7376 13.1876 15.6802 13.0906 15.602 12.9658C13.4712 14.7248 11.3623 16.4651 9.23842 18.2182L9.23543 18.2212ZM10.4953 23.431C10.8446 24.0381 11.1693 24.6166 11.5107 25.1851C11.6671 25.4456 11.9541 25.5109 12.1975 25.3753C12.4459 25.2366 12.5241 24.9454 12.3697 24.6591C12.1886 24.3254 11.9917 24.0005 11.7997 23.6717C11.6592 23.43 11.5167 23.1883 11.3662 22.9328C11.0624 23.1071 10.7981 23.2576 10.4953 23.431ZM5.63897 22.1315C5.33316 22.3326 4.92738 22.4029 4.95707 22.8327C4.96795 22.9882 5.1085 23.2002 5.24706 23.2695C5.59443 23.4409 5.84878 23.1744 6.13578 22.9942C5.96853 22.705 5.81213 22.4346 5.63795 22.1315H5.63897Z" fill="#FCFCFC"/>
<path id="Vector_3" d="M30.8446 5.58031C30.8446 6.55394 30.8466 7.52756 30.8446 8.50217C30.8426 9.52037 30.2172 10.1543 29.2087 10.1553C27.2521 10.1572 25.2945 10.1572 23.3379 10.1553C22.3433 10.1543 21.706 9.52136 21.704 8.53288C21.701 7.59095 21.702 6.64902 21.704 5.70709C21.704 5.30695 21.896 5.07518 22.2127 5.07617C22.5294 5.07716 22.7174 5.30992 22.7184 5.71105C22.7204 6.64209 22.7174 7.57411 22.7194 8.50514C22.7204 8.95976 22.8985 9.13805 23.3547 9.13904C25.3014 9.14102 27.2471 9.14102 29.1938 9.13904C29.6491 9.13904 29.8282 8.95977 29.8282 8.50415C29.8302 6.55691 29.8302 4.60867 29.8282 2.66143C29.8282 2.20384 29.6501 2.02555 29.1958 2.02456C27.2491 2.02258 25.3034 2.02258 23.3567 2.02456C22.8975 2.02456 22.7224 2.20086 22.7184 2.65449C22.7154 2.94074 22.7243 3.22599 22.7154 3.51223C22.7055 3.8371 22.5007 4.05203 22.2137 4.05402C21.9257 4.056 21.7139 3.84305 21.705 3.52016C21.6961 3.16062 21.6901 2.80009 21.708 2.44056C21.7446 1.67295 22.377 1.02123 23.1459 1.01528C25.2292 0.998446 27.3134 0.998446 29.3977 1.01528C30.2063 1.02222 30.8337 1.70365 30.8417 2.53168C30.8516 3.54789 30.8436 4.5641 30.8446 5.58031Z" fill="#FCFCFC"/>
<path id="Vector_4" d="M21.7023 21.3378C21.7023 20.3642 21.7013 19.3906 21.7023 18.4159C21.7043 17.3997 22.3318 16.7639 23.3373 16.7629C25.2938 16.7609 27.2514 16.7609 29.208 16.7629C30.2026 16.7629 30.84 17.3958 30.8429 18.3843C30.8459 19.3262 30.8449 20.2681 30.8429 21.21C30.8429 21.6092 30.6499 21.8429 30.3342 21.8419C30.0185 21.841 29.8295 21.6082 29.8295 21.2071C29.8276 20.276 29.8305 19.344 29.8285 18.413C29.8275 17.9584 29.6494 17.7801 29.1932 17.7801C27.2465 17.7781 25.3008 17.7781 23.3541 17.7801C22.8978 17.7801 22.7197 17.9574 22.7197 18.414C22.7177 20.3612 22.7177 22.3094 22.7197 24.2567C22.7197 24.7143 22.8979 24.8936 23.3511 24.8936C25.2978 24.8955 27.2435 24.8955 29.1902 24.8936C29.6484 24.8936 29.8246 24.7163 29.8295 24.2626C29.8325 23.9764 29.8236 23.6911 29.8325 23.4049C29.8424 23.079 30.0453 22.8661 30.3333 22.8631C30.6213 22.8601 30.834 23.0731 30.8429 23.397C30.8518 23.7565 30.8578 24.117 30.84 24.4766C30.8024 25.2462 30.1729 25.8959 29.403 25.9018C27.3197 25.9187 25.2355 25.9197 23.1512 25.9018C22.3426 25.8949 21.7142 25.2125 21.7063 24.3855C21.6974 23.3692 21.7043 22.353 21.7033 21.3368L21.7023 21.3378Z" fill="#FCFCFC"/>
<path id="Vector_5" d="M0.37085 10.1232C0.37085 8.83168 0.37085 7.54012 0.37085 6.24856C0.37085 5.74937 0.538103 5.58198 1.0369 5.58198C2.9628 5.58099 4.88773 5.58099 6.81364 5.58198C7.31144 5.58198 7.47966 5.75036 7.48065 6.24856C7.48065 8.85347 7.48065 11.4574 7.48065 14.0623C7.48065 14.5605 7.31142 14.7289 6.8146 14.7299C4.8887 14.7309 2.96377 14.7309 1.03786 14.7299C0.540059 14.7299 0.371816 14.5605 0.371816 14.0633C0.370826 12.7509 0.371816 11.4376 0.371816 10.1252L0.37085 10.1232ZM1.4001 13.6899H6.44053V6.61404H1.4001V13.6899Z" fill="#FCFCFC"/>
<path id="Vector_6" d="M17.6377 5.06809C17.6416 7.59476 15.5911 9.64402 13.0565 9.64699C10.5645 9.64996 8.50499 7.59971 8.49806 5.11068C8.49114 2.56916 10.5338 0.499101 13.0476 0.500092C15.5871 0.500092 17.6347 2.53846 17.6377 5.06909V5.06809ZM16.6223 5.0671C16.6203 3.10995 15.021 1.51036 13.0703 1.51531C11.0949 1.52126 9.51048 3.11491 9.51345 5.09385C9.51642 7.02921 11.1157 8.62781 13.0496 8.62979C15.0269 8.63177 16.6233 7.0401 16.6223 5.0671Z" fill="#FCFCFC"/>
<path id="Vector_7" d="M28.3048 21.3586C28.2949 22.4788 27.3696 23.3821 26.2443 23.3692C25.1399 23.3573 24.2392 22.4392 24.2442 21.3308C24.2491 20.2067 25.1646 19.3004 26.2888 19.3044C27.4082 19.3093 28.3147 20.2334 28.3048 21.3586ZM27.2884 21.3378C27.2904 20.7871 26.8322 20.3245 26.2829 20.3216C25.7267 20.3186 25.2685 20.7663 25.2596 21.32C25.2507 21.8865 25.7138 22.355 26.2809 22.351C26.8341 22.3471 27.2864 21.8924 27.2884 21.3378Z" fill="#FCFCFC"/>
<path id="Vector_8" d="M25.2585 6.11622C24.4252 6.02609 24.2461 5.92803 24.2451 5.58137C24.2451 5.23372 24.4282 5.13368 25.2595 5.04652C25.2595 4.87517 25.2546 4.69887 25.2595 4.52257C25.2863 3.72029 25.9177 3.07352 26.7144 3.04381C27.0627 3.03093 27.413 3.0339 27.7614 3.04282C28.086 3.05074 28.2998 3.25775 28.3018 3.54498C28.3037 3.83222 28.09 4.04219 27.7674 4.05408C27.5031 4.06299 27.2389 4.05606 26.9736 4.05705C26.4323 4.05804 26.2729 4.21651 26.2729 4.75334C26.2729 4.84744 26.2729 4.94054 26.2729 5.05246C26.6807 5.11882 27.2765 4.9346 27.2696 5.59028C27.2636 6.22121 26.6945 6.05877 26.2729 6.10235C26.2729 6.57084 26.2749 7.02348 26.2729 7.47513C26.271 7.88023 26.0909 8.11298 25.7771 8.11992C25.4505 8.12784 25.2595 7.89013 25.2585 7.46621C25.2565 7.02249 25.2585 6.57876 25.2585 6.11622Z" fill="#FCFCFC"/>
<path id="Vector_9" d="M21.2318 15.7452C20.8914 15.7432 20.6717 15.5659 20.637 15.2936C20.6034 15.0301 20.7865 14.7934 21.0834 14.732C21.9009 14.5646 22.7193 14.3992 23.5378 14.2367C23.9039 14.1644 24.1682 14.31 24.2365 14.6082C24.3087 14.9251 24.1296 15.1688 23.7476 15.249C22.9618 15.4134 22.174 15.5709 21.3872 15.7294C21.3258 15.7422 21.2615 15.7422 21.2328 15.7442L21.2318 15.7452Z" fill="#FCFCFC"/>
<path id="Vector_10" d="M20.2386 9.0695C20.1505 9.25868 20.1158 9.38348 20.0436 9.48153C19.5626 10.1352 19.0767 10.786 18.5848 11.4308C18.374 11.7071 18.0781 11.7546 17.8406 11.5714C17.6011 11.3862 17.5724 11.0999 17.7832 10.8157C18.2652 10.163 18.7531 9.51422 19.242 8.86646C19.3885 8.67233 19.5953 8.55446 19.8189 8.66936C19.9842 8.75454 20.102 8.93381 20.2395 9.07049L20.2386 9.0695Z" fill="#FCFCFC"/>
<path id="Vector_11" d="M19.6049 13.7624C19.4753 13.6406 19.2674 13.5346 19.2209 13.3791C19.1734 13.2226 19.2209 12.9394 19.3367 12.8463C20.0245 12.2896 20.7371 11.7637 21.4556 11.2467C21.6783 11.0862 21.9742 11.1773 22.1216 11.4002C22.276 11.6329 22.2345 11.9073 21.9851 12.0994C21.324 12.6056 20.656 13.1028 19.9859 13.597C19.8969 13.6624 19.7791 13.6881 19.6049 13.7614V13.7624Z" fill="#FCFCFC"/>
<path id="Vector_12" d="M3.92259 10.6628C3.59501 10.6628 3.26644 10.6707 2.93886 10.6608C2.61523 10.6509 2.40343 10.4399 2.40541 10.1517C2.40739 9.86249 2.61917 9.65351 2.94577 9.65054C3.60192 9.64261 4.25707 9.64261 4.91323 9.65054C5.23685 9.6545 5.44962 9.87042 5.44764 10.1586C5.44566 10.4459 5.2319 10.6529 4.90728 10.6608C4.5797 10.6697 4.25114 10.6628 3.92355 10.6628H3.92259Z" fill="#FCFCFC"/>
<path id="Vector_13" d="M3.93762 11.6802C4.2553 11.6802 4.57201 11.6743 4.88969 11.6822C5.23212 11.6901 5.4538 11.9021 5.44687 12.2002C5.43994 12.4865 5.22416 12.6905 4.89757 12.6945C4.2523 12.7014 3.60708 12.7014 2.96181 12.6945C2.61839 12.6905 2.39768 12.4756 2.4056 12.1765C2.41253 11.8892 2.62628 11.6901 2.95485 11.6832C3.28243 11.6753 3.611 11.6812 3.93858 11.6812L3.93762 11.6802Z" fill="#FCFCFC"/>
<path id="Vector_14" d="M4.46276 8.62648C4.27275 8.62648 4.08075 8.63935 3.89172 8.62351C3.61164 8.59973 3.41967 8.38282 3.42066 8.11837C3.42264 7.85293 3.61563 7.63305 3.8967 7.62017C4.25595 7.60432 4.61616 7.60333 4.97442 7.62017C5.2545 7.63404 5.44751 7.85887 5.44553 8.12332C5.44355 8.38778 5.24959 8.59973 4.96852 8.62351C4.80028 8.63737 4.63002 8.62648 4.46078 8.62549L4.46276 8.62648Z" fill="#FCFCFC"/>
<path id="Vector_15" d="M11.5455 5.06974C11.5455 4.59332 11.5406 4.1179 11.5465 3.64149C11.5524 3.13339 11.9008 2.91152 12.3561 3.13537C13.323 3.6098 14.2899 4.08423 15.241 4.58738C15.4003 4.67157 15.5467 4.88452 15.5883 5.06379C15.6437 5.3015 15.4537 5.46493 15.2399 5.5719C14.276 6.05227 13.315 6.53859 12.3491 7.01302C11.8939 7.23686 11.5524 7.01302 11.5465 6.49798C11.5415 6.02157 11.5455 5.54615 11.5455 5.06974ZM13.9583 5.07172C13.4655 4.82509 13.031 4.60719 12.5847 4.38335V5.76306C13.0449 5.53129 13.4724 5.31636 13.9583 5.07073V5.07172Z" fill="#FCFCFC"/>
</g>
</svg>
