<svg width="29" height="29" viewBox="0 0 29 29" fill="none" xmlns="http://www.w3.org/2000/svg">
<g id="Group">
<path id="Vector" d="M6.44209 15.6513C5.84006 15.8423 5.26506 16.0251 4.6786 16.2112C4.73347 16.8916 4.55082 17.4891 4.07902 17.9834C3.33775 18.7589 2.14434 18.8688 1.27364 18.2458C0.401316 17.6219 0.116276 16.4604 0.601177 15.5046C1.08034 14.5602 2.19922 14.0954 3.18212 14.4332C3.63262 14.5881 3.98892 14.8693 4.24284 15.2685C4.34768 15.4332 4.44188 15.4586 4.6229 15.3955C5.11927 15.2217 5.62382 15.0685 6.12674 14.9152C6.2578 14.875 6.31022 14.8291 6.29875 14.6725C6.12101 12.1715 6.63049 10.6574 8.32764 8.63432C8.28013 8.58268 8.23508 8.52366 8.18102 8.47447C7.40616 7.7736 6.62557 7.07846 5.85726 6.36938C5.70573 6.22921 5.60908 6.22921 5.43707 6.33905C4.28871 7.07026 2.86923 7.02435 1.77985 6.23741C0.719127 5.47095 0.235861 4.15527 0.5422 2.86746C0.849358 1.57637 1.91499 0.603339 3.26239 0.415619C4.59833 0.228719 5.67543 0.709086 6.42407 1.81409C7.1719 2.91746 7.16125 4.08395 6.50926 5.24388C6.45684 5.33651 6.39787 5.42504 6.32579 5.54063C7.21613 6.34479 8.10484 7.14649 8.97471 7.93098C9.47682 7.6203 9.95434 7.3211 10.4376 7.03009C10.5269 6.97681 10.635 6.93992 10.7382 6.92763C10.9602 6.90221 11.1248 7.00468 11.1838 7.22109C11.2444 7.44324 11.165 7.6203 10.9594 7.73999C10.6055 7.94574 10.2386 8.13346 9.90684 8.37036C7.7084 9.93935 6.66734 12.7232 7.29067 15.3242C7.92137 17.9531 10.101 19.9615 12.7736 20.3738C16.5447 20.9558 20.0046 18.3072 20.4469 14.4996C20.8695 10.8566 18.0797 7.458 14.4176 7.15797C14.2234 7.1424 14.0277 7.13256 13.8335 7.11944C13.5469 7.09977 13.3814 6.94484 13.3773 6.69072C13.3732 6.42513 13.5534 6.21773 13.8458 6.24642C14.4749 6.30872 15.1031 6.39479 15.7248 6.50546C16.0475 6.56284 16.3572 6.69482 16.6979 6.80138C17.2467 6.12182 17.8037 5.43324 18.3557 4.74958C17.3196 3.19945 17.8725 1.74606 18.7939 0.991896C19.8063 0.163959 21.2348 0.16232 22.1833 0.994355C23.1949 1.88131 23.421 3.40685 22.7084 4.53809C21.922 5.78573 20.5968 6.08575 18.9234 5.37668C18.4237 5.97591 17.9192 6.58169 17.3958 7.20961C18.5048 7.84327 19.4025 8.68105 20.0791 9.74671C20.7557 10.8124 21.1292 11.9821 21.2332 13.2601C21.9229 13.3339 22.5986 13.4052 23.2875 13.479C23.3448 13.3216 23.3915 13.1749 23.4496 13.0322C23.9321 11.86 25.1886 11.1673 26.3877 11.41C27.6016 11.6559 28.4911 12.7224 28.5042 13.9479C28.5173 15.1972 27.6499 16.2628 26.409 16.5235C25.0747 16.803 23.715 15.9644 23.3669 14.625C23.3104 14.4086 23.2178 14.3454 23.0188 14.3282C22.4479 14.2774 21.8786 14.211 21.2856 14.1487C21.0964 16.4276 20.1708 18.3171 18.3795 19.7311C16.5857 21.1476 14.5273 21.5788 12.2765 21.2214C12.1896 21.8247 12.1004 22.3928 12.0356 22.9634C12.0275 23.0396 12.129 23.1609 12.2109 23.2109C13.2413 23.8397 13.7721 24.7381 13.7189 25.9595C13.6566 27.3695 12.4493 28.5573 11.0102 28.6261C9.54972 28.6958 8.22935 27.6293 8.03522 26.2243C7.78458 24.4094 9.06154 22.9216 10.8963 22.8879C10.9823 22.8863 11.0675 22.8789 11.1723 22.8724C11.26 22.2338 11.346 21.6083 11.4344 20.9583C8.89608 20.032 7.22842 18.2769 6.43964 15.6513H6.44209ZM1.34163 3.62408C1.33508 4.90451 2.35075 5.92426 3.64081 5.9341C4.96855 5.94394 6.03828 4.91599 6.04975 3.62162C6.0604 2.32725 5.01442 1.25913 3.72764 1.25093C2.40972 1.24274 1.34818 2.29856 1.34163 3.62408ZM12.8957 25.7669C12.8998 24.6914 12.0168 23.7741 10.9717 23.7692C9.82165 23.7634 8.91902 24.6397 8.92148 25.7619C8.92311 26.8497 9.80527 27.7383 10.8914 27.7474C11.989 27.7572 12.8916 26.8653 12.8957 25.7669ZM22.3349 3.05928C22.3349 2.07231 21.5141 1.25093 20.5271 1.25011C19.527 1.25011 18.6809 2.07887 18.6801 3.0601C18.6785 4.03968 19.527 4.875 20.5239 4.875C21.4937 4.875 22.3357 4.03149 22.3349 3.05928ZM26.0085 15.6841C26.9357 15.6783 27.7253 14.8832 27.7212 13.9585C27.7171 13.0175 26.9447 12.2526 25.9986 12.2526C25.0272 12.2526 24.2171 13.0503 24.2335 13.9889C24.2499 14.9275 25.0493 15.6906 26.0093 15.6849L26.0085 15.6841ZM1.24498 16.4759C1.23925 17.1768 1.82407 17.767 2.52439 17.7687C3.22226 17.7703 3.81282 17.1776 3.80872 16.48C3.80463 15.7898 3.23209 15.2127 2.54242 15.2053C1.83882 15.1972 1.25071 15.7734 1.24498 16.4768V16.4759Z" fill="#FCFCFC"/>
<path id="Vector_2" d="M9.40479 13.9721C9.40479 12.9368 9.41298 11.9007 9.39988 10.8653C9.39578 10.5374 9.5211 10.3464 9.81925 10.2087C11.0495 9.64228 12.27 9.05207 13.5027 8.49055C13.6395 8.42825 13.8565 8.43808 13.9974 8.50202C15.258 9.07256 16.5087 9.66605 17.7669 10.244C18.0159 10.3587 18.1076 10.5342 18.1068 10.7965C18.1035 12.8966 18.1027 14.9976 18.1068 17.0978C18.1068 17.3986 18.0028 17.579 17.7038 17.6897C16.4702 18.1454 15.2465 18.6291 14.013 19.0857C13.8647 19.1406 13.6608 19.1447 13.5133 19.0906C12.2798 18.634 11.0561 18.1512 9.82253 17.6938C9.51537 17.5798 9.39988 17.3913 9.40234 17.0781C9.40971 16.0428 9.40479 15.0075 9.40479 13.9713V13.9721ZM17.2443 11.3686C17.1304 11.4178 17.0436 11.4539 16.9584 11.4924C16.1336 11.8662 15.3121 12.2482 14.4823 12.6106C14.2841 12.6974 14.2096 12.7983 14.2112 13.0196C14.221 14.6009 14.2161 16.1822 14.2178 17.7643C14.2178 17.8569 14.2292 17.9487 14.2374 18.0692C15.1859 17.711 16.0943 17.3609 17.0092 17.0306C17.214 16.9568 17.2656 16.8511 17.2639 16.6486C17.2566 14.9894 17.2598 13.3295 17.259 11.6695C17.259 11.5834 17.2508 11.4965 17.2451 11.3686H17.2443ZM13.3053 18.0594C13.3168 17.9815 13.3299 17.9348 13.3299 17.888C13.3307 16.2371 13.334 14.5853 13.3225 12.9344C13.3225 12.8409 13.2242 12.7032 13.1357 12.6614C12.2806 12.2589 11.4173 11.872 10.5556 11.4818C10.4803 11.4482 10.4 11.426 10.3156 11.3965C10.3033 11.4482 10.2902 11.4752 10.2902 11.5031C10.2886 13.2524 10.2853 15.0009 10.2968 16.7502C10.2968 16.8371 10.4131 16.965 10.504 17.0019C11.0364 17.2183 11.5778 17.4134 12.116 17.6151C12.5059 17.761 12.8966 17.9069 13.3045 18.0585L13.3053 18.0594ZM10.9152 10.703C11.6835 11.0612 12.4117 11.3646 13.1038 11.7359C13.569 11.9859 13.9573 11.9958 14.4266 11.7408C15.1237 11.3629 15.8608 11.0588 16.5931 10.717C16.5546 10.6809 16.5374 10.6538 16.5128 10.6424C15.6462 10.2407 14.7796 9.83738 13.909 9.44636C13.827 9.40947 13.6993 9.42341 13.6124 9.4603C13.2004 9.63736 12.7958 9.83082 12.3887 10.0185C11.9137 10.2382 11.4394 10.4587 10.9144 10.7022L10.9152 10.703Z" fill="#FCFCFC"/>
</g>
</svg>
