<svg width="28" height="29" viewBox="0 0 28 29" fill="none" xmlns="http://www.w3.org/2000/svg">
<g id="Group">
<path id="Vector" d="M13.8874 0.30658C14.4796 0.603536 15.068 0.907399 15.664 1.19515C19.3302 2.96384 22.9972 4.73101 26.6673 6.49049C26.9565 6.62938 27.0734 6.81277 27.0726 7.13505C27.065 12.0552 27.065 16.9753 27.0726 21.8954C27.0726 22.22 26.9496 22.4003 26.6627 22.5377C22.4597 24.555 18.2589 26.5784 14.0605 28.6073C13.8205 28.7231 13.6198 28.7216 13.3798 28.6057C9.18983 26.5815 4.99753 24.5619 0.801389 22.5507C0.492216 22.4026 0.365323 22.2146 0.366092 21.8686C0.374552 16.9669 0.374552 12.0651 0.366092 7.16344C0.366092 6.81891 0.486078 6.62785 0.797559 6.47898C4.96909 4.48086 9.13599 2.47199 13.3029 0.463882C13.3913 0.421679 13.4698 0.360293 13.5529 0.307347C13.6644 0.307347 13.7751 0.307347 13.8866 0.307347L13.8874 0.30658ZM13.3029 27.6358V26.6352C13.3029 22.362 13.2991 18.0895 13.3106 13.8162C13.3106 13.52 13.226 13.3604 12.9522 13.2622C12.7269 13.1816 12.5161 13.0604 12.3 12.9545C12.0078 12.811 11.9016 12.5931 12.007 12.3598C12.1124 12.1258 12.3554 12.0636 12.6484 12.1979C12.6992 12.2209 12.753 12.2401 12.7969 12.2723C13.4214 12.7281 14.012 12.6829 14.668 12.2762C15.2702 11.9032 15.9424 11.6431 16.5869 11.3385C16.8653 11.2065 17.0991 11.2679 17.2099 11.4866C17.3252 11.7152 17.2229 11.9424 16.9392 12.0882C16.8899 12.1135 16.8407 12.1388 16.7907 12.1626C15.9986 12.544 15.2103 12.9322 14.4127 13.3021C14.2104 13.3957 14.132 13.5054 14.1328 13.7356C14.1404 18.2583 14.1381 22.7809 14.1389 27.3036C14.1389 27.4002 14.1474 27.4962 14.1535 27.622C14.2643 27.5729 14.3396 27.5414 14.4127 27.5061C18.2804 25.6438 22.1474 23.78 26.0182 21.9246C26.2036 21.8356 26.239 21.7258 26.2382 21.5424C26.2336 17.0014 26.2351 12.4603 26.2351 7.91926V7.62154C26.1236 7.67218 26.049 7.70441 25.9759 7.73971C24.8584 8.27684 23.744 8.81934 22.6227 9.34803C22.4451 9.43167 22.3851 9.52912 22.3866 9.72326C22.3951 11.2495 22.3851 12.7757 22.3958 14.3012C22.3981 14.6227 22.2789 14.813 21.989 14.948C21.0499 15.3862 20.1193 15.8419 19.1857 16.2901C18.695 16.5256 18.4373 16.3683 18.4366 15.8297C18.435 14.3035 18.432 12.7772 18.4412 11.2518C18.4427 11.0546 18.3758 10.9587 18.2028 10.875C14.1666 8.93674 10.1335 6.99079 6.09502 5.05635C5.98504 5.00341 5.80585 5.00801 5.69356 5.06096C4.68759 5.53056 3.69008 6.01782 2.6895 6.49893C2.3934 6.64166 2.0973 6.78361 1.76352 6.94475C1.88426 7.00614 1.96503 7.04911 2.04656 7.08824C4.64684 8.34129 7.24712 9.59435 9.84663 10.8474C10.155 10.9963 10.4665 11.139 10.7695 11.2978C10.9972 11.4175 11.071 11.6539 10.9672 11.8603C10.8695 12.0544 10.648 12.1304 10.4173 12.0437C10.3312 12.0114 10.2496 11.9654 10.1666 11.9247C7.28249 10.5359 4.39841 9.14622 1.51433 7.75736C1.42127 7.71208 1.32514 7.67295 1.20593 7.62V7.94459C1.20593 12.4672 1.20825 16.9899 1.19979 21.5125C1.19979 21.7412 1.2744 21.8486 1.47359 21.9445C4.76913 23.5245 8.06005 25.1121 11.3525 26.6981C11.9839 27.002 12.6161 27.3051 13.3014 27.6335L13.3029 27.6358ZM10.2835 2.84184C10.395 2.90323 10.4642 2.94543 10.5365 2.98073C14.3773 4.83076 18.2174 6.68156 22.062 8.52469C22.1582 8.57073 22.3151 8.56766 22.4127 8.52239C23.4502 8.03436 24.4824 7.5333 25.5145 7.0353C25.5598 7.01381 25.5983 6.97852 25.656 6.93785C25.5768 6.89871 25.5199 6.86956 25.4622 6.84193C23.9625 6.11911 22.4635 5.39551 20.9638 4.67346C18.6227 3.54548 16.2816 2.41751 13.9374 1.29567C13.8359 1.24733 13.679 1.21663 13.5859 1.26037C12.4977 1.77065 11.4171 2.29703 10.2842 2.84261L10.2835 2.84184ZM6.89565 4.49697C6.98179 4.54454 7.03561 4.57754 7.09253 4.60516C10.9426 6.46057 14.7926 8.31674 18.6465 10.1637C18.7496 10.2128 18.9188 10.2051 19.0257 10.156C19.7063 9.84296 20.3785 9.51147 21.053 9.18536C21.1076 9.15927 21.1584 9.12627 21.2414 9.0787C21.1399 9.02422 21.0707 8.98278 20.9992 8.94825C19.341 8.1487 17.6829 7.34914 16.0247 6.55035C13.8667 5.50985 11.7086 4.46858 9.54823 3.43345C9.44902 3.38588 9.30135 3.34291 9.21521 3.38204C8.44613 3.73885 7.68551 4.11407 6.89565 4.49774V4.49697ZM21.5406 9.88977C21.4329 9.93657 21.3499 9.9688 21.2691 10.0072C20.6854 10.2872 20.1055 10.5758 19.5171 10.8443C19.3326 10.9287 19.2618 11.0277 19.2641 11.2372C19.2749 12.4941 19.2695 13.7517 19.2703 15.0086C19.2703 15.0976 19.2779 15.1866 19.2826 15.2933C19.3402 15.278 19.3764 15.2734 19.4072 15.2588C20.074 14.9388 20.7377 14.6127 21.4099 14.3019C21.5706 14.2275 21.5568 14.1132 21.5568 13.985C21.5568 12.7097 21.5568 11.4336 21.5568 10.1583C21.5568 10.0793 21.5483 9.9995 21.5421 9.88977H21.5406Z" fill="#FCFCFC"/>
<path id="Vector_2" d="M2.51486 17.2402C2.67252 17.2954 2.77174 17.32 2.86172 17.3629C4.00305 17.9101 5.14437 18.4595 6.28416 19.0104C6.59333 19.16 6.70102 19.3872 6.58719 19.6235C6.47414 19.8591 6.23418 19.9082 5.91424 19.7547C4.78138 19.2107 3.64927 18.6651 2.51717 18.1188C2.44257 18.0827 2.3349 18.0535 2.30798 17.9929C2.24645 17.8525 2.16648 17.6776 2.20417 17.5486C2.24108 17.422 2.41334 17.3346 2.51486 17.2402Z" fill="#FCFCFC"/>
<path id="Vector_3" d="M2.50726 19.203C2.66723 19.2636 2.75568 19.2905 2.83798 19.3296C3.41248 19.6035 3.98698 19.8782 4.55841 20.1575C4.85836 20.3041 4.95372 20.5159 4.84066 20.7514C4.72991 20.9801 4.49074 21.0423 4.2008 20.9041C3.6086 20.6233 3.01871 20.3394 2.42959 20.0524C2.22578 19.9534 2.08965 19.7815 2.17886 19.5636C2.23885 19.4171 2.40267 19.3119 2.50726 19.2022V19.203Z" fill="#FCFCFC"/>
</g>
</svg>
