<svg width="33" height="38" viewBox="0 0 33 38" fill="none" xmlns="http://www.w3.org/2000/svg">
<g id="Group 291">
<path id="Vector" d="M9.46225 14.6754C8.75473 11.3435 9.60435 8.58227 12.4354 6.68533C14.9803 4.98057 17.711 4.9736 20.2639 6.66641C23.1168 8.55937 23.9784 11.3286 23.2649 14.6764C23.4318 14.7461 23.6216 14.8297 23.8134 14.9044C25.5892 15.5975 27.3689 16.2796 29.1367 16.9925C29.3782 17.0901 29.6236 17.3002 29.7558 17.5243C30.667 19.0598 31.5495 20.6132 32.4398 22.1606C32.7826 22.7571 32.6783 23.0518 32.0344 23.3037C31.3775 23.5606 30.7247 23.8285 30.0589 24.0625C29.8015 24.1531 29.733 24.2846 29.7339 24.5455C29.7439 27.0667 29.7399 29.589 29.7399 32.1103C29.7399 32.7217 29.6654 32.8362 29.1079 33.0533C25.0148 34.6495 20.9197 36.2438 16.8276 37.844C16.5236 37.9634 16.2443 37.9774 15.9323 37.8549C11.8293 36.2477 7.72326 34.6485 3.61824 33.0473C3.06971 32.8332 2.98922 32.7217 2.98822 32.1432C2.98822 29.6219 2.98226 27.0996 2.99518 24.5783C2.99717 24.2826 2.91668 24.1422 2.63248 24.0426C1.94384 23.8016 1.26811 23.5228 0.589408 23.2539C0.0846026 23.0538 -0.0366301 22.7252 0.233659 22.2532C1.15781 20.639 2.08295 19.0249 3.02897 17.4227C3.13728 17.2395 3.3559 17.0812 3.55861 17.0005C5.45561 16.2447 7.36055 15.5078 9.26251 14.765C9.33009 14.7381 9.39468 14.7043 9.46225 14.6724V14.6754ZM16.9727 36.4837C17.0969 36.4429 17.2023 36.414 17.3036 36.3752C20.9486 34.9562 24.5915 33.5343 28.2394 32.1243C28.4998 32.0237 28.5574 31.8843 28.5564 31.6304C28.5475 29.4317 28.5514 27.233 28.5504 25.0344C28.5504 24.9278 28.5395 24.8213 28.5325 24.6799C28.3418 24.7496 28.1798 24.8053 28.0208 24.8671C25.2295 25.9535 22.4391 27.0409 19.6478 28.1252C19.143 28.3214 18.9393 28.2497 18.668 27.7817C18.1701 26.9233 17.6773 26.063 17.1794 25.2037C17.1297 25.117 17.0651 25.0384 16.9727 24.9059V36.4827V36.4837ZM4.17869 24.6679C4.17869 24.8372 4.17869 24.9597 4.17869 25.0812C4.17869 27.2549 4.18565 29.4287 4.17074 31.6035C4.16875 31.9022 4.26017 32.0297 4.53742 32.1372C7.96672 33.4616 11.39 34.8019 14.8154 36.1362C15.1204 36.2547 15.4275 36.3662 15.7365 36.4817V24.884C15.1761 25.8539 14.6613 26.7441 14.1476 27.6353C13.766 28.2975 13.6338 28.3443 12.9273 28.0685C10.2522 27.0249 7.57619 25.9814 4.90112 24.9388C4.67356 24.8502 4.445 24.7675 4.17968 24.6689L4.17869 24.6679ZM16.3795 6.66541C13.0962 6.65247 10.4142 9.32412 10.4053 12.6181C10.3963 15.9161 13.0535 18.6107 16.3298 18.6246C19.615 18.6395 22.3089 15.9709 22.3229 12.6868C22.3378 9.36594 19.6846 6.67836 16.3795 6.66541ZM19.5285 26.8965C23.4259 25.3769 27.2924 23.8693 31.1798 22.3548C30.4057 21.0115 29.6515 19.704 28.8794 18.3637C24.9939 19.8773 21.1274 21.3839 17.2281 22.9034C17.9962 24.2368 18.7485 25.5432 19.5285 26.8965ZM1.55132 22.3538C5.44865 23.8713 9.31816 25.3789 13.2036 26.8925C13.9767 25.5502 14.7309 24.2407 15.499 22.9084C15.3381 22.8427 15.2029 22.7849 15.0658 22.7312C13.452 22.1018 11.8372 21.4725 10.2234 20.8432C8.20521 20.0565 6.18897 19.2679 4.16677 18.4922C4.0515 18.4484 3.81201 18.4613 3.77028 18.531C3.024 19.7867 2.30058 21.0553 1.55231 22.3528L1.55132 22.3538ZM22.8257 15.7568C22.7561 15.8773 22.7074 15.9609 22.6587 16.0456C21.3272 18.3617 19.3348 19.6911 16.6686 19.7887C13.771 19.8952 11.5699 18.5977 10.1042 16.0854C9.95712 15.8335 9.85178 15.7538 9.56957 15.8793C9.00514 16.1302 8.42183 16.3413 7.84747 16.5703C6.99884 16.9089 6.15121 17.2475 5.24792 17.6089C5.394 17.6727 5.47846 17.7135 5.56591 17.7473C9.08166 19.1165 12.5974 20.4887 16.1181 21.8459C16.2801 21.9087 16.5096 21.8937 16.6756 21.83C18.7783 21.0234 20.874 20.2019 22.9727 19.3844C24.4583 18.8048 25.9449 18.2263 27.511 17.6159C25.9052 16.9786 24.3709 16.3692 22.8267 15.7558L22.8257 15.7568Z" fill="#FCFCFC"/>
<path id="Vector_2" d="M11.5658 5.40064C11.4795 5.32029 11.2758 5.20995 11.1773 5.02677C10.7314 4.19655 10.31 3.3492 9.89233 2.4997C9.71962 2.1494 9.81724 1.77554 10.0941 1.60092C10.3626 1.43167 10.6742 1.51737 10.8497 1.85374C11.2983 2.71395 11.7423 3.57737 12.1637 4.45472C12.3749 4.89394 12.0962 5.40064 11.5649 5.40171L11.5658 5.40064Z" fill="#FCFCFC"/>
<path id="Vector_3" d="M17.0891 2.01727C17.0891 2.44193 17.0939 2.86658 17.0875 3.29124C17.0818 3.68765 16.8871 3.94478 16.6051 3.94478C16.3232 3.94478 16.126 3.68863 16.1236 3.29124C16.1188 2.43024 16.1188 1.56827 16.1236 0.707268C16.126 0.305014 16.3175 0.0595703 16.6059 0.0595703C16.8952 0.0595703 17.0826 0.305014 17.0883 0.707268C17.0939 1.14361 17.0899 1.58093 17.0899 2.01727H17.0891Z" fill="#FCFCFC"/>
<path id="Vector_4" d="M5.93004 5.88884C6.13522 5.99007 6.25888 6.03409 6.36849 6.10671C7.06832 6.57547 7.76628 7.04642 8.46049 7.52397C8.82306 7.77266 8.92611 8.13027 8.75373 8.48129C8.58416 8.8268 8.26282 8.90272 7.90213 8.66065C7.18168 8.17979 6.46593 7.69013 5.75017 7.20157C5.48223 7.01891 5.35856 6.72071 5.48597 6.40161C5.57216 6.18704 5.78858 6.04509 5.93098 5.88774L5.93004 5.88884Z" fill="#FCFCFC"/>
<path id="Vector_5" d="M21.1365 5.40202C20.6264 5.38515 20.3559 4.95971 20.5581 4.58675C20.9858 3.79773 21.4416 3.02369 21.903 2.25434C22.0631 1.98821 22.3869 1.93574 22.6415 2.08379C22.8914 2.22998 23.0018 2.53922 22.8493 2.81378C22.414 3.59906 21.9667 4.37778 21.4996 5.14432C21.4154 5.28301 21.2132 5.34954 21.1355 5.40202H21.1365Z" fill="#FCFCFC"/>
<path id="Vector_6" d="M27.2901 7.04669C27.2271 7.12501 27.1313 7.32787 26.9725 7.42505C26.2546 7.86663 25.5217 8.28461 24.7888 8.69977C24.4543 8.88942 24.1283 8.80544 23.9676 8.51767C23.805 8.22423 23.9009 7.92041 24.2438 7.71755C24.9598 7.29484 25.6777 6.87591 26.4021 6.46831C26.8353 6.22393 27.2863 6.46264 27.2892 7.04575L27.2901 7.04669Z" fill="#FCFCFC"/>
<path id="Vector_7" d="M26.7851 13.6536C26.3602 13.6536 25.9354 13.6633 25.5105 13.6512C25.1032 13.6391 24.8634 13.3591 24.8615 12.9251C24.8595 12.4863 25.0973 12.2112 25.5066 12.2063C26.368 12.1991 27.2294 12.1991 28.0919 12.2063C28.4953 12.21 28.7457 12.4948 28.7467 12.9203C28.7467 13.3421 28.4943 13.6391 28.0957 13.6512C27.6592 13.6645 27.2217 13.6536 26.7851 13.6536Z" fill="#FCFCFC"/>
<path id="Vector_8" d="M5.43057 13.1694C5.00524 13.1694 4.58088 13.1767 4.15555 13.1678C3.72144 13.1589 3.48049 12.9691 3.49317 12.667C3.50487 12.3794 3.739 12.209 4.16336 12.2057C5.01304 12.1993 5.8637 12.1993 6.71339 12.2057C7.13189 12.209 7.36992 12.3859 7.37772 12.6726C7.38553 12.9723 7.14164 13.1589 6.70558 13.1678C6.28123 13.1758 5.8559 13.1694 5.43057 13.1694Z" fill="#FCFCFC"/>
<path id="Vector_9" d="M14.9244 12.6858C16.0711 11.5336 17.178 10.4263 18.278 9.31407C18.7296 8.85778 19.2636 8.69304 19.8743 8.87176C20.9842 9.19426 21.3433 10.5571 20.5446 11.4258C20.0991 11.91 19.6197 12.3633 19.1552 12.8306C18.103 13.887 17.0527 14.9453 15.9975 15.9997C15.1889 16.8074 14.2043 16.7555 13.4952 15.8689C12.8815 15.1021 12.2719 14.3323 11.6662 13.5605C11.0714 12.8026 11.143 11.8501 11.8283 11.298C12.5364 10.7279 13.4753 10.8667 14.0889 11.6335C14.3595 11.9709 14.627 12.3114 14.9244 12.6868V12.6858ZM12.8129 12.0937C12.6836 12.1896 12.5185 12.2515 12.5096 12.3324C12.4917 12.4861 12.5136 12.6858 12.6031 12.8036C13.1819 13.5664 13.7826 14.3113 14.3764 15.0621C14.6926 15.4625 14.8388 15.4705 15.2058 15.1031C16.645 13.6593 18.0831 12.2156 19.5212 10.7708C19.5909 10.7009 19.7003 10.632 19.7132 10.5501C19.7351 10.4074 19.747 10.2027 19.6664 10.1218C19.5849 10.0409 19.379 10.0479 19.2398 10.0759C19.1463 10.0949 19.0717 10.2147 18.9931 10.2945C17.8086 11.4827 16.6251 12.6728 15.4396 13.86C14.99 14.3093 14.6737 14.2883 14.2739 13.7881C13.902 13.3218 13.537 12.8496 13.159 12.3873C13.0705 12.2795 12.9432 12.2026 12.8139 12.0947L12.8129 12.0937Z" fill="#FCFCFC"/>
</g>
</svg>
