<svg width="29" height="30" viewBox="0 0 29 30" fill="none" xmlns="http://www.w3.org/2000/svg">
<g id="Group">
<path id="Vector" d="M16.3379 0.986266C16.471 1.09456 16.615 1.19188 16.7357 1.31261C18.2682 2.84924 19.7948 4.39171 21.3316 5.92394C21.5429 6.13468 21.627 6.36151 21.6256 6.65347C21.6182 8.10375 21.6226 9.55403 21.6226 11.0043C21.6226 11.1024 21.6226 11.2004 21.6226 11.3629C21.7374 11.2575 21.8091 11.1968 21.8756 11.1302C22.8137 10.1987 23.7503 9.26573 24.6883 8.33351C25.0912 7.93326 25.3003 7.93253 25.6995 8.33205C26.4533 9.08646 27.2064 9.84233 27.9602 10.5975C28.3908 11.0292 28.3886 11.2019 27.9492 11.6416C25.9064 13.6868 23.865 15.7327 21.8178 17.7735C21.6775 17.914 21.6183 18.0523 21.619 18.2513C21.6248 21.5719 21.6233 24.8917 21.6219 28.2123C21.6219 28.3484 21.616 28.4867 21.5926 28.6198C21.5517 28.8555 21.3967 28.9828 21.1627 29.0091C21.0728 29.0194 20.9807 29.0135 20.8893 29.0135C14.29 29.0135 7.69143 29.0135 1.09213 29.0135C0.514524 29.0135 0.36973 28.8686 0.36973 28.284C0.36973 19.4265 0.369745 10.5697 0.366089 1.71214C0.366089 1.40993 0.426041 1.15603 0.69364 0.984802C5.90816 0.986266 11.1227 0.986266 16.3379 0.986266ZM1.36556 1.97483V28.0191H20.6261V19.0277C20.1691 19.4718 19.7333 19.9123 19.2771 20.3301C19.1148 20.4787 18.9159 20.6126 18.7098 20.6843C17.6525 21.0502 16.5873 21.3933 15.5249 21.746C15.4364 21.7753 15.3516 21.8148 15.2646 21.8492C15.5315 21.8916 15.7859 21.8909 16.0396 21.8916C16.5134 21.8916 16.9879 21.8858 17.4617 21.8975C17.7381 21.9041 17.915 22.0819 17.9333 22.3329C17.9538 22.6051 17.8024 22.7946 17.5158 22.8458C17.4266 22.8619 17.3345 22.8648 17.2446 22.8648C13.0697 22.8656 8.89415 22.8656 4.71932 22.8648C4.60161 22.8648 4.48023 22.8597 4.36764 22.8297C4.12417 22.7646 4.0079 22.5912 4.02252 22.3409C4.03641 22.1009 4.17387 21.9531 4.40491 21.907C4.5197 21.8843 4.64108 21.8924 4.75952 21.8924C7.92318 21.8924 11.0861 21.8924 14.2498 21.8924H14.5642C14.1269 21.3443 14.6665 20.9133 14.6409 20.4238H14.4728C11.2272 20.4238 7.9824 20.4238 4.73685 20.4238C4.63668 20.4238 4.53435 20.4311 4.43711 20.4136C4.19656 20.3697 4.04446 20.2299 4.02399 19.9753C4.00424 19.7257 4.14097 19.5355 4.39248 19.4777C4.50654 19.4513 4.62719 19.4477 4.74417 19.4477C8.08038 19.4462 11.4173 19.4448 14.7535 19.4506C14.9458 19.4506 15.0394 19.4052 15.0986 19.2084C15.2602 18.6677 15.4379 18.1306 15.6346 17.6023C15.7084 17.4047 15.8232 17.2035 15.9702 17.0549C17.4646 15.5439 18.9715 14.0461 20.466 12.5351C20.5669 12.4334 20.6436 12.257 20.6451 12.1151C20.6575 10.4731 20.6531 8.83035 20.6524 7.18836C20.6524 7.09983 20.6443 7.01129 20.6392 6.9008C20.5208 6.9008 20.4221 6.9008 20.3234 6.9008C19.0198 6.9008 17.7161 6.9008 16.4125 6.9008C15.916 6.9008 15.7837 6.76762 15.783 6.26785C15.7822 4.93612 15.783 3.60364 15.783 2.27191C15.783 2.17605 15.783 2.08093 15.783 1.97848H1.36848L1.36556 1.97483ZM23.0418 11.4148C20.9939 13.4783 18.954 15.533 16.9506 17.551C17.5531 18.1591 18.1789 18.7906 18.7653 19.3826C20.803 17.3564 22.8568 15.3142 24.9055 13.2778C24.2869 12.6595 23.6618 12.0353 23.0418 11.4148ZM25.2031 9.28622C24.7351 9.75745 24.2555 10.2404 23.7985 10.7006C24.401 11.3043 25.0246 11.9285 25.6315 12.5365C26.0987 12.0712 26.5805 11.5912 27.0426 11.1309C26.435 10.5214 25.8128 9.89794 25.2031 9.28622ZM16.7678 5.89248H19.8606C18.8362 4.86953 17.7973 3.83121 16.7678 2.80314V5.89248ZM17.7922 19.9811C17.3081 19.4945 16.8315 19.0152 16.3518 18.533C16.1215 19.2223 15.8824 19.9387 15.6273 20.704C16.3957 20.4472 17.1151 20.2072 17.7929 19.9811H17.7922Z" fill="#FCFCFC"/>
<path id="Vector_2" d="M10.9632 25.2951C8.88532 25.2951 6.80814 25.2951 4.73023 25.2951C4.62129 25.2951 4.50868 25.3024 4.40339 25.2797C4.17527 25.23 4.03418 25.0865 4.02029 24.8451C4.0064 24.5948 4.12118 24.4229 4.36466 24.3563C4.46848 24.3278 4.58034 24.3197 4.68782 24.3197C8.87946 24.3182 13.0711 24.3182 17.2628 24.3197C17.371 24.3197 17.4828 24.3278 17.5859 24.3563C17.8294 24.4229 17.9449 24.5941 17.931 24.8443C17.9179 25.0858 17.776 25.2285 17.5486 25.2797C17.4528 25.3017 17.349 25.2951 17.2496 25.2951C15.1541 25.2951 13.058 25.2951 10.9625 25.2951H10.9632Z" fill="#FCFCFC"/>
<path id="Vector_3" d="M7.95115 17.0154C9.01642 17.0154 10.0817 17.0154 11.147 17.0154C11.256 17.0154 11.3685 17.0081 11.4731 17.033C11.7144 17.0901 11.8511 17.254 11.8489 17.502C11.8467 17.7347 11.7246 17.9016 11.4906 17.9557C11.3773 17.982 11.2559 17.985 11.1382 17.9857C8.99817 17.9872 6.85882 17.9872 4.71876 17.9864C4.64565 17.9864 4.57254 17.9879 4.50088 17.9799C4.18064 17.9447 4.00299 17.7545 4.01907 17.4662C4.03369 17.1969 4.22305 17.0191 4.53598 17.0176C5.67437 17.0118 6.81204 17.0154 7.95043 17.0154V17.014L7.95115 17.0154Z" fill="#FCFCFC"/>
</g>
</svg>
