<svg width="29" height="28" viewBox="0 0 29 28" fill="none" xmlns="http://www.w3.org/2000/svg">
<g id="Group">
<path id="Vector" d="M23.0542 11.556C23.5749 11.0879 24.1086 10.7365 24.7716 10.5961C25.9413 10.3482 27.1442 10.837 27.801 11.8392C28.4524 12.8328 28.4309 14.1511 27.7379 15.1072C27.6041 15.2921 27.4457 15.4625 27.2834 15.6244C25.9344 16.9734 24.5793 18.3162 23.2372 19.6721C23.1319 19.7787 23.0557 19.966 23.0542 20.1163C23.0411 21.7155 23.0542 23.3153 23.0434 24.9145C23.0342 26.4415 22.1028 27.5994 20.6716 27.8779C20.457 27.9193 20.2324 27.9255 20.0132 27.9255C14.4758 27.9278 8.93836 27.9285 3.4017 27.927C1.87507 27.927 0.705284 27.0047 0.421491 25.5767C0.375346 25.3442 0.368428 25.1009 0.368428 24.8623C0.366121 17.6225 0.365351 10.382 0.366889 3.14223C0.366889 1.58532 1.27364 0.422813 2.71414 0.132763C2.94718 0.0859554 3.19097 0.0798167 3.42939 0.0798167C7.74781 0.0767474 12.0662 0.0798169 16.3847 0.0721436C16.7377 0.0721436 16.9984 0.17957 17.2484 0.429719C19.0673 2.2575 20.8954 4.07607 22.7281 5.89081C22.9565 6.11717 23.058 6.36349 23.0565 6.68116C23.0496 8.20354 23.0534 9.72669 23.0534 11.2491C23.0534 11.3511 23.0534 11.4532 23.0534 11.5545L23.0542 11.556ZM21.8806 21.0157C20.7362 22.1582 19.6648 23.2417 18.5735 24.3044C18.3843 24.4886 18.1274 24.6444 17.8744 24.7173C16.4939 25.1132 15.1041 25.48 13.7175 25.8544C13.1091 26.0187 12.7507 25.6641 12.9153 25.0603C13.2945 23.6668 13.6683 22.2725 14.0651 20.8844C14.1297 20.6573 14.2666 20.4248 14.4327 20.2575C16.8469 17.832 19.2734 15.418 21.6883 12.9932C21.7944 12.8873 21.8713 12.7001 21.8721 12.5505C21.8844 10.8171 21.8806 9.08367 21.8798 7.35027C21.8798 7.25743 21.8713 7.16458 21.8652 7.04257C21.7452 7.04257 21.6421 7.04257 21.5399 7.04257C20.7046 7.04257 19.8702 7.04718 19.0349 7.04181C17.3499 7.03106 16.0878 5.78722 16.0624 4.10523C16.0501 3.25273 16.0601 2.40099 16.0601 1.54849C16.0601 1.44873 16.0601 1.34821 16.0601 1.23618C15.934 1.23618 15.8578 1.23618 15.7809 1.23618C11.6548 1.23618 7.52786 1.23465 3.4017 1.23695C2.23423 1.23695 1.52975 1.9498 1.52975 3.12458C1.52898 10.3743 1.52898 17.6233 1.52975 24.873C1.52975 26.0632 2.23269 26.7699 3.4217 26.7699C8.9399 26.7714 14.4573 26.7584 19.9755 26.7814C21.0507 26.786 21.9298 26.0041 21.889 24.8554C21.849 23.7366 21.8806 22.6148 21.8806 21.4945C21.8806 21.364 21.8806 21.2336 21.8806 21.0164V21.0157ZM17.9382 23.2141C20.397 20.7609 22.8504 18.3124 25.2699 15.8983C24.4808 15.1141 23.6695 14.3092 22.8842 13.5296C20.4601 15.949 18.0074 18.396 15.5594 20.8399C16.3462 21.6257 17.1515 22.4298 17.9382 23.2148V23.2141ZM23.7771 12.5766C24.5985 13.3945 25.4099 14.2033 26.2259 15.0159C26.8466 14.5194 27.2703 13.9017 27.0619 13.0293C26.8919 12.3187 26.4297 11.8844 25.7114 11.7432C24.8623 11.576 24.257 11.975 23.7771 12.5766ZM17.2437 2.15084C17.2437 2.86906 17.2145 3.58652 17.2514 4.3009C17.2937 5.10967 17.9159 5.77111 18.7311 5.8463C19.4064 5.90846 20.0901 5.877 20.7708 5.88544C20.8423 5.88621 20.9138 5.87239 20.9669 5.86702C19.7279 4.63009 18.492 3.39622 17.2445 2.15084H17.2437ZM14.9719 21.9549C14.7419 22.8012 14.5196 23.6215 14.2804 24.5016C15.1687 24.2576 15.9863 24.0328 16.8277 23.8018C16.1962 23.1734 15.6025 22.5818 14.9726 21.9541L14.9719 21.9549Z" fill="#FCFCFC"/>
<path id="Vector_2" d="M4.99681 14.5816C4.44999 14.5816 3.90317 14.5839 3.35635 14.5816C2.9149 14.5793 2.69494 14.3675 2.6934 13.9355C2.68955 12.8252 2.69032 11.7141 2.6934 10.6037C2.69494 10.1832 2.90566 9.9515 3.32405 9.94767C4.45614 9.93769 5.58824 9.93769 6.72034 9.94767C7.12334 9.9515 7.34176 10.1817 7.34407 10.5838C7.35022 11.7041 7.35099 12.8244 7.34407 13.9447C7.34176 14.3621 7.11181 14.5785 6.69573 14.5816C6.12968 14.5854 5.56363 14.5823 4.99758 14.5823L4.99681 14.5816ZM3.86934 13.4091H6.16891V11.1263H3.86934V13.4091Z" fill="#FCFCFC"/>
<path id="Vector_3" d="M2.69172 5.87156C2.69172 5.31601 2.68864 4.76046 2.69249 4.20568C2.69556 3.78979 2.91552 3.55499 3.32775 3.55269C4.45062 3.54578 5.57349 3.54655 6.69559 3.55269C7.11013 3.55499 7.34085 3.78365 7.34315 4.19571C7.34931 5.31601 7.35008 6.43631 7.34315 7.55662C7.34008 7.96791 7.10551 8.1935 6.69097 8.19504C5.5781 8.19964 4.46447 8.19964 3.3516 8.19504C2.91783 8.1935 2.69633 7.96867 2.69249 7.53743C2.68864 6.98189 2.69172 6.42634 2.69172 5.87156ZM6.17184 4.7267H3.87534V7.02179H6.17184V4.7267Z" fill="#FCFCFC"/>
<path id="Vector_4" d="M2.69185 18.6293C2.69185 18.0929 2.69031 17.5573 2.69185 17.021C2.69415 16.556 2.89489 16.3434 3.35019 16.3419C4.46306 16.3373 5.57592 16.3373 6.68879 16.3419C7.12563 16.3434 7.34251 16.5598 7.34405 16.9987C7.34867 18.0998 7.34944 19.201 7.34405 20.3013C7.34175 20.7548 7.12487 20.9666 6.66726 20.9681C5.56439 20.972 4.46075 20.972 3.35788 20.9681C2.8995 20.9666 2.69492 20.754 2.69262 20.2952C2.68954 19.7396 2.69262 19.1849 2.69262 18.6293H2.69185ZM3.86778 19.7918H6.16966V17.5236H3.86778V19.7918Z" fill="#FCFCFC"/>
<path id="Vector_5" d="M11.7032 11.6896C10.8972 11.6896 10.092 11.6919 9.286 11.6872C9.15295 11.6872 9.01452 11.678 8.88916 11.6404C8.64382 11.566 8.48385 11.3136 8.5123 11.0603C8.54153 10.7971 8.68227 10.6138 8.94684 10.5531C9.06682 10.5255 9.19448 10.524 9.3183 10.524C10.9103 10.5224 12.5031 10.5224 14.0951 10.5232C14.1428 10.5232 14.1912 10.5224 14.2389 10.524C14.6581 10.5416 14.9088 10.7688 14.8988 11.1217C14.8896 11.4594 14.6365 11.6849 14.2358 11.688C13.3914 11.6942 12.5477 11.6896 11.7032 11.6903V11.6896Z" fill="#FCFCFC"/>
<path id="Vector_6" d="M11.7039 16.9235C12.5383 16.9235 13.3728 16.922 14.208 16.9235C14.6418 16.9251 14.891 17.1292 14.8994 17.4814C14.9087 17.8428 14.6433 18.0784 14.2103 18.0791C12.5314 18.0814 10.8525 18.0791 9.17357 18.0807C8.90209 18.0807 8.68443 17.9901 8.56291 17.7346C8.46293 17.5236 8.47293 17.2949 8.64213 17.1499C8.78134 17.0309 8.98976 16.9381 9.17049 16.9327C10.0142 16.9105 10.8586 16.9228 11.7031 16.9228L11.7039 16.9235Z" fill="#FCFCFC"/>
<path id="Vector_7" d="M11.707 5.29284C10.901 5.29284 10.0958 5.29284 9.28979 5.29284C9.18443 5.29284 9.07752 5.29284 8.97447 5.27596C8.71682 5.23222 8.53147 5.0212 8.50993 4.76261C8.48917 4.50863 8.64222 4.25694 8.88833 4.18251C9.01369 4.14491 9.15212 4.13647 9.28517 4.1357C10.8964 4.13264 12.5076 4.1334 14.1197 4.13417C14.215 4.13417 14.3127 4.1334 14.4065 4.14952C14.7195 4.20476 14.9187 4.45568 14.8987 4.75724C14.8788 5.04806 14.6649 5.26061 14.355 5.28593C14.2119 5.29744 14.0674 5.29207 13.9235 5.29284C13.1852 5.29284 12.4461 5.29284 11.7078 5.29284H11.707Z" fill="#FCFCFC"/>
<path id="Vector_8" d="M10.8388 6.46111C11.3948 6.46111 11.9501 6.45727 12.5061 6.46264C12.8999 6.46648 13.1583 6.69898 13.1576 7.03584C13.1576 7.37116 12.8938 7.6144 12.5069 7.61594C11.3856 7.62054 10.2643 7.62054 9.14369 7.61594C8.76146 7.6144 8.50151 7.36042 8.50997 7.02202C8.51766 6.69054 8.763 6.46801 9.14369 6.46341C9.70897 6.45727 10.2743 6.46187 10.8395 6.46187L10.8388 6.46111Z" fill="#FCFCFC"/>
<path id="Vector_9" d="M10.8388 12.8468C11.3949 12.8468 11.9509 12.843 12.5062 12.8483C12.8961 12.8514 13.1568 13.0877 13.1576 13.4231C13.1576 13.7584 12.8938 14.0001 12.5069 14.0016C11.3856 14.0055 10.2643 14.0055 9.14296 14.0016C8.75919 14.0001 8.50077 13.7499 8.50923 13.41C8.51693 13.077 8.76149 12.8529 9.14219 12.8491C9.70747 12.8429 10.2728 12.8468 10.8388 12.8468Z" fill="#FCFCFC"/>
<path id="Vector_10" d="M10.8096 20.3909C10.2636 20.3909 9.71674 20.3948 9.17069 20.3902C8.75692 20.3863 8.50004 20.1523 8.50927 19.8001C8.5185 19.4655 8.77922 19.2361 9.17223 19.2353C10.2836 19.2323 11.3957 19.2315 12.507 19.2353C12.8946 19.2369 13.1576 19.4801 13.1576 19.8154C13.1576 20.1507 12.8969 20.3863 12.5062 20.3894C11.9409 20.3948 11.3757 20.3909 10.8096 20.3909Z" fill="#FCFCFC"/>
</g>
</svg>
