<svg width="32" height="23" viewBox="0 0 32 23" fill="none" xmlns="http://www.w3.org/2000/svg">
<g id="Group">
<path id="Vector" d="M0.366795 1.02357C0.556616 0.950829 0.745726 0.81453 0.935546 0.81453C7.75073 0.803937 14.5659 0.805349 21.3811 0.806056C21.8595 0.806056 21.9492 0.89857 21.9492 1.38515C21.9506 2.90704 21.9492 4.42822 21.9492 5.9501C21.9492 6.07228 21.9492 6.19375 21.9492 6.36253C22.0762 6.36253 22.1841 6.36253 22.2921 6.36253C23.2306 6.36253 24.1698 6.3703 25.1084 6.35759C25.3878 6.35406 25.5593 6.45646 25.6983 6.69728C26.634 8.32439 27.5817 9.94373 28.5166 11.5708C28.6133 11.7389 28.722 11.8187 28.9125 11.8434C30.436 12.0405 31.7888 13.4352 31.7175 15.2064C31.6836 16.0426 31.7118 16.8809 31.7118 17.7184C31.7118 18.2142 31.6935 18.2396 31.2137 18.3921C31.2137 18.6301 31.2193 18.8745 31.2122 19.1181C31.1974 19.6457 30.8905 19.9988 30.3739 19.9599C29.7706 19.914 29.4333 20.0694 29.1186 20.6605C28.5216 21.7813 27.4716 22.2749 26.1993 22.1704C24.9524 22.068 24.0746 21.3992 23.5722 20.2594C23.4727 20.0334 23.364 19.9663 23.1255 19.9677C21.5236 19.979 19.9218 19.9776 18.32 19.9684C18.116 19.967 18.018 20.0249 17.9396 20.2198C17.4499 21.4303 16.3152 22.193 15.0331 22.1944C13.7565 22.1958 12.6134 21.4289 12.1244 20.2212C12.0446 20.0249 11.9487 19.9656 11.7447 19.9684C10.9389 19.9797 10.1323 19.979 9.32645 19.9684C9.13169 19.9656 9.05055 20.0327 8.97645 20.2142C8.48602 21.4253 7.35627 22.1859 6.07128 22.1916C4.79405 22.1972 3.64666 21.4345 3.15976 20.2255C3.07297 20.0094 2.95936 19.9628 2.75472 19.9684C2.36732 19.9797 1.97921 19.9797 1.59181 19.967C1.10067 19.9515 0.803588 19.6485 0.775362 19.157C0.773245 19.1266 0.770429 19.0955 0.773251 19.0652C0.812062 18.6746 0.809238 18.3018 0.366089 18.1188C0.366089 12.4197 0.366089 6.72058 0.366089 1.02145L0.366795 1.02357ZM21.1899 1.56806H7.48964C7.48964 1.71707 7.48964 1.83924 7.48964 1.96071C7.48964 3.55393 7.49599 5.14714 7.47905 6.73965C7.47764 6.89219 7.36474 7.12595 7.24549 7.17256C7.12694 7.21917 6.88983 7.12101 6.78187 7.01013C6.25404 6.47058 5.75162 5.90561 5.23932 5.35124C5.1878 5.29545 5.12641 5.24813 5.0622 5.19093C4.50967 5.79827 3.97338 6.38654 3.4392 6.97623C3.29666 7.13372 3.15059 7.28273 2.91561 7.19092C2.67851 7.0977 2.68415 6.88513 2.68415 6.67468C2.68627 5.08146 2.68557 3.48825 2.68557 1.89574C2.68557 1.78769 2.68557 1.67964 2.68557 1.55817H1.11832V11.6146H21.1899V1.56806ZM21.1814 14.0949H1.12113V17.5857C1.80279 17.5857 2.4654 17.5934 3.1266 17.5765C3.21622 17.5744 3.32982 17.4649 3.38769 17.3759C4.66703 15.3971 7.47059 15.395 8.73512 17.3816C8.83814 17.544 8.94682 17.5913 9.12676 17.5899C10.0759 17.5821 11.0243 17.5821 11.9734 17.5899C12.1568 17.5913 12.2627 17.5362 12.365 17.3773C13.6458 15.39 16.4267 15.3943 17.7039 17.3865C17.8084 17.5496 17.9213 17.5913 18.1005 17.5899C19.0292 17.5828 19.9578 17.5871 20.8857 17.5857C20.9824 17.5857 21.0798 17.5772 21.1807 17.5722V14.0949H21.1814ZM21.9873 12.544V17.5849C22.5236 17.5849 23.0415 17.592 23.5594 17.5765C23.6328 17.5744 23.7097 17.4677 23.7718 17.3978C24.0089 17.1337 24.2079 16.8237 24.4803 16.604C25.9791 15.3971 28.0862 15.7594 29.1419 17.3787C29.1997 17.4677 29.3147 17.5729 29.4065 17.5765C29.9223 17.5955 30.4388 17.5857 30.9575 17.5857V15.5892C30.7663 15.5892 30.5934 15.5984 30.4226 15.5878C29.6471 15.5376 29.1433 15.0172 29.1186 14.2439C29.1122 14.0504 29.1165 13.8562 29.1165 13.6619C29.1165 13.25 29.3122 12.991 29.7036 12.8851C29.3077 12.6471 28.9026 12.544 28.4673 12.544C26.7843 12.544 25.1013 12.544 23.4183 12.544C22.9505 12.544 22.4826 12.544 21.9873 12.544ZM27.763 11.7961C27.7496 11.7403 27.7489 11.7086 27.7348 11.6853C26.8774 10.2043 26.0215 8.7234 25.1535 7.24883C25.1062 7.16903 24.963 7.10829 24.8621 7.10476C24.4041 7.08923 23.9454 7.0977 23.4868 7.0977C22.9907 7.0977 22.4946 7.0977 21.9943 7.0977V11.7961H27.7623H27.763ZM21.18 12.3901H1.12325V13.2792H21.18V12.3901ZM3.43709 5.88301C3.78497 5.50095 4.09193 5.16621 4.39606 4.83076C4.85003 4.32982 5.30165 4.32605 5.75091 4.81946C6.06281 5.16127 6.37824 5.50025 6.72825 5.87878V1.5836H3.43709V5.88301ZM15.0366 21.4585C16.371 21.4543 17.4556 20.359 17.4379 19.0334C17.4203 17.7149 16.342 16.6478 15.0288 16.6485C13.7142 16.6492 12.6388 17.7234 12.6324 19.0412C12.6261 20.3801 13.7029 21.4628 15.0366 21.4585ZM28.849 19.0793C28.8638 17.7587 27.8223 16.6655 26.5338 16.6492C25.1726 16.6323 24.0689 17.6923 24.0583 19.0256C24.0478 20.366 25.1098 21.4458 26.4491 21.4571C27.775 21.4677 28.8335 20.419 28.8483 19.0793H28.849ZM8.45356 19.0708C8.46556 17.7516 7.41979 16.6626 6.12844 16.6492C4.7877 16.6351 3.68477 17.6775 3.67065 18.9734C3.65583 20.3695 4.69949 21.455 6.06069 21.4578C7.38873 21.4606 8.44157 20.4112 8.45286 19.0715L8.45356 19.0708ZM18.2028 19.2163H23.3054C23.3223 18.9239 23.3386 18.6542 23.3548 18.378H18.1337C18.1577 18.6676 18.1803 18.9388 18.2028 19.2163ZM11.931 18.3809H9.16133C9.19097 18.6732 9.21778 18.9437 9.24459 19.2121H11.859C11.8844 18.9225 11.907 18.6605 11.931 18.3809ZM2.96148 18.3794H1.50853C1.50853 18.6203 1.50007 18.8427 1.51419 19.0638C1.51842 19.1231 1.5911 19.2269 1.63414 19.2283C2.05471 19.241 2.47599 19.2361 2.90009 19.2361C2.92196 18.9282 2.94101 18.6662 2.96148 18.3801V18.3794ZM30.9166 14.8258C30.9194 13.9197 30.5997 13.5779 29.8899 13.7078C29.7043 14.5991 30.0289 14.9593 30.9166 14.8258ZM29.6422 19.2015C30.4466 19.3491 30.4981 19.3074 30.4784 18.5313C30.477 18.4833 30.4664 18.4352 30.4586 18.3787H29.5638C29.5914 18.6676 29.6168 18.9359 29.6422 19.2022V19.2015Z" fill="#FCFCFC"/>
<path id="Vector_2" d="M15.9793 10.6451C14.9187 10.6451 13.8588 10.6466 12.7982 10.6451C12.3967 10.6451 12.2831 10.5357 12.2795 10.143C12.2753 9.58159 12.2753 9.02015 12.2795 8.45942C12.2824 8.0823 12.4016 7.95942 12.7714 7.95871C14.9024 7.95659 17.0335 7.95659 19.1639 7.95871C19.5435 7.95871 19.6607 8.07665 19.6635 8.44812C19.667 9.00956 19.6663 9.57099 19.6635 10.1317C19.6614 10.5449 19.5569 10.6444 19.1293 10.6451C18.0793 10.6466 17.0293 10.6451 15.9786 10.6451H15.9793ZM13.0275 9.89232H18.9134V8.71295H13.0275V9.89232Z" fill="#FCFCFC"/>
<path id="Vector_3" d="M14.5378 6.35539C15.1292 6.35539 15.7205 6.35327 16.3118 6.3561C16.6181 6.35751 16.7747 6.48534 16.7747 6.72051C16.7747 6.95638 16.6181 7.08774 16.3118 7.08844C15.1186 7.09127 13.9253 7.09127 12.7328 7.08844C12.4378 7.08774 12.2691 6.94084 12.2882 6.70568C12.3101 6.43731 12.4851 6.35186 12.7328 6.35398C13.3347 6.35751 13.9359 6.35539 14.5378 6.35539Z" fill="#FCFCFC"/>
<path id="Vector_4" d="M14.5399 3.4346C15.1206 3.4346 15.7021 3.43248 16.2828 3.4353C16.6095 3.43742 16.7775 3.56736 16.7761 3.80536C16.7747 4.04476 16.6138 4.16694 16.2786 4.16764C15.1065 4.16976 13.9344 4.16764 12.7623 4.16906C12.5125 4.16906 12.3086 4.11044 12.2881 3.81595C12.2712 3.57372 12.4434 3.43742 12.7673 3.4353C13.3586 3.43177 13.9499 3.43389 14.5406 3.4346H14.5399Z" fill="#FCFCFC"/>
<path id="Vector_5" d="M17.4174 5.6274C16.8367 5.6274 16.2552 5.62882 15.6745 5.6274C15.3344 5.62599 15.1791 5.513 15.1749 5.27006C15.1707 5.025 15.333 4.89435 15.659 4.89365C16.831 4.89153 18.0038 4.89153 19.1759 4.89365C19.5019 4.89365 19.6642 5.025 19.66 5.27006C19.6558 5.51229 19.5005 5.62599 19.1604 5.6274C18.5797 5.62952 17.9982 5.6274 17.4174 5.6274Z" fill="#FCFCFC"/>
<path id="Vector_6" d="M18.5326 7.08891C18.2885 7.08891 18.0443 7.09456 17.8002 7.0875C17.5602 7.08043 17.4071 6.94908 17.4127 6.70897C17.4184 6.48651 17.5638 6.35798 17.7931 6.35657C18.292 6.35374 18.7902 6.35092 19.2891 6.35798C19.5149 6.36151 19.6546 6.48439 19.6574 6.71744C19.6603 6.95261 19.5177 7.07408 19.2954 7.08538C19.0414 7.09809 18.7867 7.0882 18.5326 7.0882V7.08891Z" fill="#FCFCFC"/>
<path id="Vector_7" d="M18.515 4.16514C18.2709 4.16514 18.0267 4.16938 17.7833 4.16373C17.5525 4.15879 17.4128 4.02743 17.4114 3.80427C17.41 3.57969 17.5561 3.44339 17.7812 3.43845C18.2793 3.42856 18.7775 3.42786 19.2757 3.43704C19.5093 3.44128 19.6667 3.56274 19.6589 3.81557C19.6518 4.05144 19.5008 4.15808 19.2785 4.16303C19.0245 4.16868 18.7705 4.16444 18.5157 4.16303L18.515 4.16514Z" fill="#FCFCFC"/>
<path id="Vector_8" d="M13.4144 5.62607C13.1702 5.62607 12.9261 5.62819 12.6826 5.62607C12.4427 5.62325 12.2888 5.50813 12.2896 5.25955C12.2903 5.00955 12.4533 4.89726 12.6882 4.89444C13.1759 4.88949 13.6642 4.88737 14.1518 4.89585C14.3903 4.90009 14.5399 5.03497 14.5307 5.28003C14.5222 5.50884 14.3741 5.62325 14.1461 5.62537C13.902 5.62748 13.6578 5.62536 13.4144 5.62607Z" fill="#FCFCFC"/>
<path id="Vector_9" d="M16.7252 19.0471C16.7266 19.9849 15.9751 20.7469 15.0436 20.7533C14.1023 20.7596 13.336 19.9884 13.3395 19.0393C13.343 18.105 14.1058 17.3451 15.0366 17.3486C15.9695 17.3514 16.7238 18.1106 16.7252 19.0478V19.0471ZM15.9906 19.0358C15.985 18.5117 15.5545 18.0831 15.0338 18.0824C14.5024 18.0824 14.0684 18.5259 14.0741 19.0647C14.0797 19.5838 14.5158 20.0174 15.0323 20.0174C15.5637 20.0174 15.9963 19.5739 15.9906 19.0358Z" fill="#FCFCFC"/>
<path id="Vector_10" d="M28.1613 19.0724C28.1514 20.0018 27.378 20.7602 26.4494 20.7525C25.5193 20.7447 24.7643 19.9777 24.7671 19.0441C24.7699 18.1119 25.5341 17.3471 26.4621 17.3478C27.4041 17.3485 28.1712 18.1275 28.1613 19.0724ZM27.4267 19.0575C27.4309 18.5272 26.9835 18.0787 26.455 18.0837C25.9371 18.0886 25.5052 18.5237 25.5024 19.0441C25.4996 19.5653 25.9237 20.0046 26.4423 20.0173C26.9708 20.03 27.4232 19.5886 27.4274 19.0575H27.4267Z" fill="#FCFCFC"/>
<path id="Vector_11" d="M6.05412 20.7525C5.12901 20.7468 4.36056 19.9728 4.36268 19.047C4.36479 18.1197 5.13395 17.3499 6.06117 17.3478C6.99969 17.3457 7.77944 18.1324 7.76744 19.0696C7.75474 19.9989 6.98276 20.7581 6.05483 20.7525H6.05412ZM7.03215 19.0519C7.03356 18.5378 6.59888 18.0957 6.08094 18.0837C5.55875 18.0717 5.09585 18.5258 5.09655 19.0505C5.09655 19.5646 5.53406 20.0088 6.04848 20.0173C6.57701 20.0265 7.03003 19.5816 7.03145 19.0519H7.03215Z" fill="#FCFCFC"/>
</g>
</svg>
