<svg width="29" height="29" viewBox="0 0 29 29" fill="none" xmlns="http://www.w3.org/2000/svg">
<g id="Group">
<path id="Vector" d="M6.42098 15.6513C5.81895 15.8423 5.24394 16.0251 4.65748 16.2112C4.71236 16.8916 4.5297 17.4892 4.0579 17.9835C3.31663 18.7589 2.12322 18.8688 1.25253 18.2458C0.380198 17.622 0.0951583 16.4604 0.580059 15.5046C1.05923 14.5602 2.1781 14.0955 3.16101 14.4332C3.6115 14.5881 3.9678 14.8693 4.22172 15.2685C4.32656 15.4333 4.42076 15.4587 4.60178 15.3956C5.09815 15.2218 5.6027 15.0685 6.10562 14.9152C6.23668 14.875 6.2891 14.8291 6.27764 14.6725C6.09989 12.1715 6.60937 10.6575 8.30652 8.63435C8.25901 8.58271 8.21396 8.52369 8.1599 8.4745C7.38504 7.77363 6.60445 7.07849 5.83615 6.36941C5.68462 6.22924 5.58796 6.22924 5.41595 6.33908C4.26759 7.07029 2.84811 7.02439 1.75873 6.23744C0.698008 5.47098 0.214743 4.1553 0.521082 2.86749C0.82824 1.5764 1.89388 0.60337 3.24128 0.41565C4.57721 0.228749 5.65431 0.709116 6.40295 1.81412C7.15078 2.91749 7.14014 4.08398 6.48814 5.24391C6.43572 5.33654 6.37675 5.42507 6.30467 5.54066C7.19502 6.34482 8.08372 7.14653 8.9536 7.93102C9.4557 7.62033 9.93322 7.32113 10.4165 7.03012C10.5058 6.97684 10.6139 6.93995 10.7171 6.92766C10.9391 6.90224 11.1037 7.00471 11.1627 7.22112C11.2233 7.44327 11.1438 7.62033 10.9382 7.74002C10.5844 7.94577 10.2174 8.13349 9.88572 8.3704C7.68729 9.93938 6.64622 12.7232 7.26955 15.3242C7.90025 17.9531 10.0798 19.9615 12.7525 20.3738C16.5236 20.9558 19.9834 18.3073 20.4257 14.4996C20.8484 10.8567 18.0586 7.45803 14.3964 7.158C14.2023 7.14243 14.0066 7.13259 13.8124 7.11947C13.5257 7.0998 13.3603 6.94487 13.3562 6.69075C13.3521 6.42516 13.5323 6.21776 13.8247 6.24645C14.4538 6.30875 15.082 6.39482 15.7037 6.50549C16.0264 6.56287 16.336 6.69485 16.6768 6.80142C17.2256 6.12185 17.7826 5.43327 18.3346 4.74961C17.2985 3.19948 17.8514 1.74609 18.7728 0.991926C19.7852 0.16399 21.2137 0.16235 22.1622 0.994385C23.1738 1.88134 23.3999 3.40688 22.6872 4.53812C21.9009 5.78576 20.5756 6.08578 18.9022 5.37671C18.4026 5.97594 17.898 6.58172 17.3746 7.20964C18.4837 7.8433 19.3814 8.68108 20.058 9.74674C20.7345 10.8124 21.108 11.9822 21.2121 13.2601C21.9017 13.3339 22.5775 13.4052 23.2663 13.479C23.3237 13.3216 23.3704 13.1749 23.4285 13.0323C23.911 11.86 25.1674 11.1673 26.3666 11.41C27.5805 11.6559 28.47 12.7224 28.4831 13.9479C28.4962 15.1972 27.6288 16.2628 26.3879 16.5235C25.0536 16.803 23.6939 15.9645 23.3458 14.625C23.2893 14.4086 23.1967 14.3455 22.9977 14.3283C22.4268 14.2774 21.8575 14.211 21.2645 14.1487C21.0753 16.4276 20.1497 18.3171 18.3584 19.7312C16.5646 21.1477 14.5062 21.5788 12.2553 21.2214C12.1685 21.8248 12.0792 22.3928 12.0145 22.9634C12.0063 23.0396 12.1079 23.1609 12.1898 23.2109C13.2202 23.8397 13.751 24.7381 13.6978 25.9595C13.6355 27.3695 12.4282 28.5573 10.989 28.6261C9.5286 28.6958 8.20823 27.6293 8.0141 26.2243C7.76346 24.4094 9.04042 22.9216 10.8752 22.888C10.9612 22.8863 11.0464 22.879 11.1512 22.8724C11.2389 22.2338 11.3249 21.6084 11.4133 20.9583C8.87497 20.032 7.2073 18.2769 6.41852 15.6513H6.42098ZM1.32051 3.62411C1.31396 4.90454 2.32963 5.92429 3.61969 5.93413C4.94744 5.94397 6.01716 4.91602 6.02863 3.62165C6.03928 2.32728 4.9933 1.25916 3.70652 1.25096C2.3886 1.24277 1.32707 2.29859 1.32051 3.62411ZM12.8746 25.7669C12.8787 24.6914 11.9957 23.7741 10.9505 23.7692C9.80053 23.7635 8.8979 24.6398 8.90036 25.762C8.902 26.8498 9.78415 27.7384 10.8703 27.7474C11.9678 27.7572 12.8705 26.8653 12.8746 25.7669ZM22.3137 3.05931C22.3137 2.07234 21.493 1.25096 20.506 1.25014C19.5059 1.25014 18.6598 2.0789 18.659 3.06013C18.6573 4.03971 19.5059 4.87503 20.5027 4.87503C21.4725 4.87503 22.3146 4.03152 22.3137 3.05931ZM25.9874 15.6841C26.9146 15.6784 27.7042 14.8832 27.7001 13.9586C27.696 13.0175 26.9236 12.2527 25.9775 12.2527C25.0061 12.2527 24.196 13.0503 24.2124 13.9889C24.2288 14.9275 25.0282 15.6907 25.9882 15.6849L25.9874 15.6841ZM1.22386 16.476C1.21813 17.1769 1.80296 17.7671 2.50328 17.7687C3.20114 17.7703 3.7917 17.1777 3.78761 16.4801C3.78351 15.7899 3.21097 15.2128 2.5213 15.2054C1.8177 15.1972 1.22959 15.7735 1.22386 16.4768V16.476Z" fill="#FCFCFC"/>
<path id="Vector_2" d="M9.38367 13.9722C9.38367 12.9369 9.39186 11.9007 9.37876 10.8654C9.37466 10.5375 9.49998 10.3465 9.79813 10.2088C11.0284 9.64234 12.2488 9.05213 13.4816 8.49061C13.6184 8.42831 13.8354 8.43814 13.9763 8.50208C15.2369 9.07262 16.4876 9.66611 17.7457 10.244C17.9947 10.3588 18.0865 10.5342 18.0857 10.7965C18.0824 12.8967 18.0816 14.9977 18.0857 17.0979C18.0857 17.3987 17.9816 17.5791 17.6827 17.6897C16.4491 18.1455 15.2254 18.6291 13.9919 19.0857C13.8436 19.1407 13.6397 19.1448 13.4922 19.0906C12.2587 18.6341 11.035 18.1512 9.80141 17.6938C9.49425 17.5799 9.37876 17.3913 9.38122 17.0782C9.38859 16.0429 9.38367 15.0075 9.38367 13.9714V13.9722ZM17.2232 11.3687C17.1093 11.4179 17.0225 11.454 16.9373 11.4925C16.1125 11.8663 15.2909 12.2483 14.4612 12.6106C14.263 12.6975 14.1884 12.7983 14.1901 13.0197C14.1999 14.6009 14.195 16.1822 14.1966 17.7643C14.1966 17.8569 14.2081 17.9488 14.2163 18.0693C15.1648 17.711 16.0732 17.361 16.9881 17.0306C17.1929 16.9569 17.2445 16.8511 17.2428 16.6486C17.2355 14.9895 17.2387 13.3295 17.2379 11.6696C17.2379 11.5835 17.2297 11.4966 17.224 11.3687H17.2232ZM13.2842 18.0594C13.2956 17.9815 13.3087 17.9348 13.3087 17.8881C13.3096 16.2371 13.3128 14.5854 13.3014 12.9344C13.3014 12.841 13.2031 12.7032 13.1146 12.6614C12.2595 12.2589 11.3962 11.872 10.5345 11.4818C10.4591 11.4482 10.3789 11.4261 10.2945 11.3966C10.2822 11.4482 10.2691 11.4753 10.2691 11.5031C10.2675 13.2525 10.2642 15.001 10.2757 16.7503C10.2757 16.8372 10.392 16.9651 10.4829 17.002C11.0153 17.2184 11.5567 17.4135 12.0949 17.6151C12.4847 17.761 12.8754 17.9069 13.2834 18.0586L13.2842 18.0594ZM10.8941 10.7031C11.6624 11.0613 12.3905 11.3646 13.0827 11.736C13.5479 11.986 13.9362 11.9958 14.4055 11.7409C15.1025 11.363 15.8397 11.0588 16.572 10.717C16.5335 10.6809 16.5163 10.6539 16.4917 10.6424C15.6251 10.2407 14.7585 9.83744 13.8878 9.44642C13.8059 9.40953 13.6782 9.42347 13.5913 9.46036C13.1793 9.63742 12.7747 9.83088 12.3676 10.0186C11.8925 10.2383 11.4183 10.4588 10.8933 10.7023L10.8941 10.7031Z" fill="#FCFCFC"/>
</g>
</svg>
